<svg id="Layer_1" data-name="Layer 1" xmlns="http://www.w3.org/2000/svg" viewBox="0 0 369.75 35.73"><defs><style>.cls-1{fill:#1d384b;}.cls-2{fill:#1188c9;}</style></defs><title>Anomali_Logo_BlackBlue-CMYK</title><path class="cls-1" d="M103.51,3.2V33.84a1.41,1.41,0,0,1-1.41,1.41H99.25c-8,0-10.5-2.86-19.68-15l-.81-1.05C70.55,8.49,69.88,7.61,65.91,7.61h0V33.85a1.4,1.4,0,0,1-1.4,1.4h-3a1.4,1.4,0,0,1-1.4-1.4V3.2a1.4,1.4,0,0,1,1.41-1.4h2.85c8.41,0,10.84,2.86,19.78,15,8.42,11.47,9.3,12.67,13.56,12.67h0V3.2a1.4,1.4,0,0,1,1.4-1.4h3A1.4,1.4,0,0,1,103.51,3.2ZM227.23,1.8h-3.92a4.56,4.56,0,0,0-3.82,2.05L203.94,22.36,188.44,3.85a4.59,4.59,0,0,0-3.83-2H180.7a1.41,1.41,0,0,0-1.41,1.4V33.84a1.41,1.41,0,0,0,1.41,1.41h2.8a1.41,1.41,0,0,0,1.41-1.41V8.34L201.3,27.65a1.41,1.41,0,0,0,1.07.49h3.18a1.43,1.43,0,0,0,1.08-.49L223,8.34v25.5a1.41,1.41,0,0,0,1.41,1.41h2.81a1.41,1.41,0,0,0,1.4-1.41V3.2A1.4,1.4,0,0,0,227.23,1.8ZM331.68,29.62H315.1c-7.62,0-10.19-2-10.19-7.91V3.2a1.4,1.4,0,0,0-1.4-1.4H300.6a1.39,1.39,0,0,0-1.4,1.4V21.71c0,9.49,4.75,13.54,15.9,13.54h16.58a1.4,1.4,0,0,0,1.4-1.4V31A1.41,1.41,0,0,0,331.68,29.62ZM350.53,1.8h-3.21a1.26,1.26,0,0,0-1.26,1.25V34a1.26,1.26,0,0,0,1.26,1.26h3.21A1.25,1.25,0,0,0,351.78,34V3.05A1.25,1.25,0,0,0,350.53,1.8Zm-186,16.72c0,14.28-9.26,17.21-23.16,17.21s-23.15-2.93-23.15-17.21,9.26-17.16,23.15-17.16S164.54,4.28,164.54,18.52Zm-5.87,0c0-10-5.57-11.73-17.29-11.73S124.1,8.54,124.1,18.52s5.57,11.73,17.28,11.73S158.67,28.5,158.67,18.52ZM33.67,8.38c-2.13-4.21-4.65-7-10-7-5.73,0-8.19,3.37-10,7L1.23,33.21a1.42,1.42,0,0,0,.06,1.37,1.4,1.4,0,0,0,1.2.67h3a1.4,1.4,0,0,0,1.26-.78L19.23,9.67c1.13-2.25,2.4-3.17,4.41-3.17S27,7.42,28.1,9.67l12.47,24.8a1.4,1.4,0,0,0,1.25.78h3a1.41,1.41,0,0,0,1.25-2Zm241.45,0c-2.13-4.21-4.65-7-10-7-5.73,0-8.19,3.37-10,7L242.67,33.2a1.41,1.41,0,0,0,1.25,2h3a1.4,1.4,0,0,0,1.25-.78L260.68,9.67c1.12-2.25,2.4-3.17,4.41-3.17s3.33.92,4.45,3.18L282,34.48a1.4,1.4,0,0,0,1.26.78h3a1.4,1.4,0,0,0,1.25-2Z"/><path class="cls-2" d="M23.68,26.48c-2.56,0-3.78-.38-3.78-2.58s1.22-2.58,3.78-2.58,3.78.39,3.78,2.58S26.24,26.48,23.68,26.48Zm241.44,0c-2.57,0-3.78-.38-3.78-2.58s1.22-2.58,3.78-2.58,3.78.39,3.78,2.58S267.68,26.49,265.12,26.48Z"/><path class="cls-1" d="M357.27,6.38a5,5,0,1,1,5,4.93A4.91,4.91,0,0,1,357.27,6.38Zm5,4.11a4,4,0,0,0,4-4.11,4,4,0,1,0-8,0A4,4,0,0,0,362.26,10.49Zm-1-1.26h-.85V3.56h2.15c1.34,0,2,.5,2,1.62a1.48,1.48,0,0,1-1.47,1.56l1.61,2.49h-1l-1.5-2.45h-1Zm1-3.18c.73,0,1.38-.06,1.38-.93,0-.7-.64-.83-1.24-.83h-1.17V6.05Z"/></svg>