<svg width="183" height="72" viewBox="0 0 183 72" fill="none" xmlns="http://www.w3.org/2000/svg">
<path d="M168.143 41.9228L157.332 26.0804H147.269L159.327 43.7704C159.603 44.3053 160.029 44.7483 160.553 45.045C161.076 45.3417 161.675 45.4794 162.276 45.4411H166.718C168.713 45.4116 169.352 43.8883 168.143 41.9228Z" fill="#052391"/>
<path d="M136.999 26.0804L126.188 41.9227C124.92 43.8883 125.618 45.4116 127.653 45.4116H132.095C132.693 45.4331 133.285 45.2884 133.805 44.9934C134.326 44.6984 134.754 44.2648 135.043 43.7408L147.102 26.0509L136.999 26.0804Z" fill="#00E2F9"/>
<path d="M168.133 4.49866L157.323 20.3312H147.259L159.318 2.64121C159.592 2.10444 160.017 1.65948 160.541 1.36094C161.065 1.06241 161.664 0.923291 162.266 0.960669H166.708C168.703 0.99998 169.342 2.53311 168.133 4.49866Z" fill="#052391"/>
<path d="M136.979 20.3312L126.169 4.49869C124.901 2.53314 125.599 1.00001 127.633 1.00001H132.075C132.674 0.980522 133.266 1.12723 133.787 1.42386C134.307 1.7205 134.735 2.15547 135.023 2.68055L147.082 20.3705L136.979 20.3312Z" fill="#00E2F9"/>
<path d="M68.0571 0.999948H51.8217C51.4607 0.959275 51.0953 1.00045 50.7525 1.1204C50.4096 1.24036 50.0983 1.43602 49.8414 1.69285C49.5846 1.94967 49.3889 2.26106 49.269 2.60389C49.149 2.94672 49.1079 3.31217 49.1485 3.67309V42.7482C49.1075 43.1088 49.1486 43.4739 49.2686 43.8164C49.3886 44.1588 49.5844 44.4697 49.8415 44.7259C50.0985 44.982 50.4102 45.1767 50.7531 45.2954C51.096 45.4141 51.4613 45.4538 51.8217 45.4115H54.8584C55.2188 45.4538 55.5841 45.4141 55.927 45.2954C56.2699 45.1767 56.5816 44.982 56.8386 44.7259C57.0957 44.4697 57.2915 44.1588 57.4115 43.8164C57.5315 43.4739 57.5726 43.1088 57.5316 42.7482V8.04644H66.6616C70.917 8.04644 73.541 11.152 73.541 15.4664C73.541 19.7808 70.9366 22.8274 66.6616 22.8274H63.2808V29.5495H68.0571C77.0003 29.5495 82.1403 23.2696 82.1403 15.5352C82.1403 7.80074 77.0691 0.999948 68.0571 0.999948Z" fill="#052391"/>
<path d="M116.144 38.3651H97.9433V26.8863H113.412C113.78 26.9213 114.15 26.8746 114.498 26.7497C114.845 26.6247 115.161 26.4246 115.422 26.1636C115.683 25.9025 115.883 25.5871 116.008 25.2397C116.133 24.8923 116.179 24.5217 116.144 24.1542V22.8864C116.177 22.5224 116.129 22.1555 116.002 21.8126C115.876 21.4696 115.674 21.1593 115.413 20.9041C115.151 20.6489 114.835 20.4554 114.489 20.3376C114.143 20.2197 113.775 20.1806 113.412 20.2231H97.9433V13.5599H97.8549V1.00003H92.2236C91.863 0.959042 91.4979 1.00008 91.1554 1.12008C90.8129 1.24007 90.502 1.43592 90.2459 1.69299C89.9898 1.95005 89.7951 2.26168 89.6764 2.60457C89.5576 2.94747 89.5179 3.31277 89.5602 3.67317V42.7483C89.5195 43.1079 89.5604 43.4721 89.6799 43.8138C89.7993 44.1554 89.9943 44.4657 90.2502 44.7217C90.5061 44.9776 90.8164 45.1725 91.1581 45.292C91.4997 45.4114 91.8639 45.4523 92.2236 45.4116H116.144C116.504 45.4523 116.868 45.4114 117.21 45.292C117.551 45.1725 117.862 44.9776 118.118 44.7217C118.374 44.4657 118.569 44.1554 118.688 43.8138C118.807 43.4721 118.848 43.1079 118.808 42.7483V41.0972C118.85 40.7341 118.811 40.3662 118.693 40.0201C118.575 39.674 118.382 39.3586 118.127 39.0969C117.871 38.8351 117.561 38.6336 117.218 38.507C116.875 38.3804 116.508 38.3319 116.144 38.3651Z" fill="#052391"/>
<path d="M116.144 1.00003H103.604V8.04652H116.144C116.508 8.0797 116.875 8.03122 117.218 7.90463C117.561 7.77804 117.871 7.57651 118.127 7.31475C118.382 7.05299 118.575 6.73758 118.693 6.39152C118.811 6.04547 118.85 5.67749 118.808 5.3144V3.67317C118.85 3.31277 118.81 2.94747 118.691 2.60457C118.573 2.26168 118.378 1.95005 118.122 1.69299C117.866 1.43592 117.555 1.24007 117.212 1.12008C116.87 1.00008 116.505 0.959042 116.144 1.00003Z" fill="#052391"/>
<path d="M41.9841 42.306L26.7609 3.16213C26.5564 2.50642 26.1388 1.93771 25.5745 1.54608C25.0102 1.15445 24.3314 0.962285 23.6455 1.00002H19.5277C19.2335 1.00136 18.9403 1.03431 18.6531 1.0983L22.938 13.0194L29.2277 30.0607H14.0045L18.5449 17.7858L14.8006 7.3684L1.38571 42.306C0.687938 44.1438 1.51347 45.4116 3.47902 45.4116H6.52562C7.20339 45.4562 7.87576 45.2654 8.42908 44.8714C8.9824 44.4775 9.38273 43.9045 9.56239 43.2495L12.039 36.7239H31.2031L33.6698 43.2495C33.8783 43.9146 34.3051 44.49 34.8812 44.8823C35.4573 45.2747 36.1489 45.4612 36.8442 45.4116H39.8908C41.8564 45.4116 42.6819 44.1143 41.9841 42.306Z" fill="#052391"/>
<path d="M8.69755 55.2098V57.1754H2.44711V61.5291H7.36098V63.4946H2.44711V69.9514H0V55.2098H8.69755Z" fill="#052391"/>
<path d="M10.555 56.2811C10.4071 56.1372 10.2905 55.9643 10.2127 55.7732C10.1349 55.582 10.0975 55.3768 10.103 55.1705C10.0971 54.9657 10.1343 54.7618 10.2122 54.5722C10.29 54.3826 10.4068 54.2114 10.555 54.0698C10.7714 53.8535 11.0472 53.7064 11.3474 53.6472C11.6476 53.588 11.9586 53.6194 12.2409 53.7374C12.5232 53.8553 12.7641 54.0546 12.9329 54.3098C13.1016 54.565 13.1908 54.8646 13.1889 55.1705C13.1938 55.3759 13.1572 55.5802 13.0812 55.771C13.0052 55.9619 12.8914 56.1354 12.7466 56.2811C12.452 56.564 12.0593 56.7219 11.6508 56.7219C11.2423 56.7219 10.8497 56.564 10.555 56.2811ZM12.8449 58.2466V69.9613H10.4273V58.2761L12.8449 58.2466Z" fill="#052391"/>
<path d="M23.9011 58.6594C24.6276 59.0433 25.223 59.6353 25.6111 60.3596C26.0439 61.2002 26.2569 62.1367 26.2302 63.0819V69.9613H23.8224V63.416C23.8808 62.5391 23.5992 61.6733 23.0362 60.9984C22.7578 60.7137 22.4217 60.4918 22.0505 60.3478C21.6793 60.2037 21.2815 60.1407 20.884 60.163C20.4866 60.1426 20.0894 60.2064 19.7184 60.3504C19.3475 60.4944 19.0112 60.7152 18.7317 60.9984C18.1615 61.6698 17.8759 62.5372 17.9356 63.416V69.9613H15.5082V58.2761H17.9356V59.6127C18.3419 59.1221 18.8613 58.7376 19.4491 58.4923C20.0686 58.2212 20.7384 58.0839 21.4147 58.0894C22.2776 58.0736 23.1312 58.2693 23.9011 58.6594Z" fill="#052391"/>
<path d="M31.6061 60.2515V66.7181C31.5867 66.8948 31.6046 67.0736 31.6588 67.2429C31.713 67.4123 31.8022 67.5683 31.9206 67.7009C32.2244 67.9214 32.5985 68.0228 32.9721 67.9859H34.4561V70.0006H32.5397C31.6398 70.0644 30.7478 69.7951 30.0336 69.2438C29.7169 68.9151 29.4749 68.5219 29.3239 68.0912C29.173 67.6604 29.1167 67.2021 29.159 66.7476V60.2613H27.7831V58.2957H29.159V55.3474H31.6061V58.2957H34.4561V60.2613L31.6061 60.2515Z" fill="#052391"/>
<path d="M46.8194 65.0376H37.827C37.8485 65.8901 38.201 66.7007 38.8097 67.2979C39.4416 67.8607 40.2635 68.1627 41.1094 68.1431C41.6821 68.1832 42.2535 68.0487 42.7483 67.7575C43.243 67.4662 43.6379 67.0319 43.8809 66.5117H46.495C46.1357 67.5785 45.4476 68.504 44.5295 69.1554C43.5199 69.8677 42.305 70.2301 41.0701 70.1873C40.0187 70.2032 38.9815 69.9422 38.0628 69.4306C37.1815 68.9343 36.4591 68.1982 35.9794 67.3078C35.4603 66.328 35.1998 65.2321 35.2226 64.1236C35.1997 63.0205 35.4531 61.9293 35.9597 60.9492C36.4264 60.0559 37.1437 59.3181 38.0235 58.8264C38.9585 58.3222 40.008 58.0683 41.0701 58.0893C42.0983 58.0704 43.1139 58.3175 44.0185 58.8068C44.9222 59.2502 45.6745 59.9512 46.1806 60.8215C46.6726 61.7462 46.9196 62.7815 46.898 63.8287C46.9002 64.233 46.8739 64.637 46.8194 65.0376ZM44.3723 63.072C44.378 62.6643 44.2928 62.2604 44.1228 61.8898C43.9528 61.5192 43.7023 61.1911 43.3895 60.9296C42.7447 60.3787 41.9178 60.0879 41.0701 60.1139C40.2806 60.0962 39.5141 60.381 38.9277 60.9099C38.3159 61.4724 37.9371 62.2439 37.8663 63.072H44.3723Z" fill="#052391"/>
<path d="M48.6376 60.9493C49.116 60.072 49.831 59.3467 50.7014 58.8559C51.6044 58.3607 52.6199 58.1068 53.6497 58.1189C54.8969 58.0658 56.1289 58.4099 57.168 59.1016C58.1155 59.8127 58.7805 60.8363 59.0451 61.991H56.4997C56.3211 61.4451 55.9778 60.9679 55.517 60.6249C54.996 60.2821 54.381 60.1104 53.7578 60.1336C53.3074 60.1153 52.8588 60.2007 52.4465 60.383C52.0342 60.5653 51.6691 60.8397 51.3795 61.1851C50.8049 62.0611 50.4989 63.0859 50.4989 64.1334C50.4989 65.181 50.8049 66.2058 51.3795 67.0818C51.6682 67.429 52.0327 67.7053 52.4451 67.8893C52.8575 68.0733 53.3066 68.1602 53.7578 68.1432C54.3617 68.193 54.9647 68.0377 55.4694 67.7025C55.9741 67.3672 56.3509 66.8715 56.5391 66.2955H59.1532C58.8537 67.4316 58.1782 68.4328 57.2368 69.1358C56.2246 69.8598 55.0016 70.2295 53.7578 70.1873C52.7257 70.1975 51.7091 69.9365 50.8095 69.4306C49.8952 68.9483 49.1406 68.2108 48.6376 67.3078C48.1525 66.3182 47.9003 65.2307 47.9003 64.1285C47.9003 63.0264 48.1525 61.9389 48.6376 60.9493Z" fill="#052391"/>
<path d="M69.4331 58.6594C70.1411 59.0515 70.7185 59.6426 71.094 60.3596C71.519 61.2027 71.7284 62.1381 71.7033 63.0819V69.9613H69.2758V63.416C69.3341 62.5391 69.0526 61.6733 68.4896 60.9984C68.2112 60.7137 67.8751 60.4919 67.5039 60.3478C67.1327 60.2037 66.7349 60.1407 66.3373 60.1631C65.9399 60.1426 65.5427 60.2065 65.1718 60.3504C64.8009 60.4944 64.4646 60.7152 64.1851 60.9984C63.6123 61.6688 63.3232 62.536 63.3792 63.416V69.9613H60.9615V54.2369H63.3792V59.6225C63.7985 59.1134 64.3393 58.718 64.9516 58.4727C65.6071 58.1951 66.3135 58.0579 67.0253 58.0698C67.8651 58.0573 68.6941 58.2603 69.4331 58.6594Z" fill="#052391"/>
<path d="M81.4425 69.6664C80.6928 69.3528 80.0436 68.8395 79.5654 68.1825C79.1077 67.5299 78.8701 66.7484 78.8873 65.9516H81.4818C81.5208 66.554 81.7921 67.1177 82.2385 67.524C82.7612 67.9644 83.4336 68.1862 84.1156 68.1431C84.8227 68.1827 85.5205 67.9664 86.0812 67.5338C86.3096 67.3438 86.4919 67.1044 86.6145 66.8338C86.737 66.5631 86.7966 66.2682 86.7888 65.9712C86.8051 65.5277 86.6503 65.0949 86.3564 64.7624C86.0519 64.4412 85.6791 64.1926 85.2655 64.0351C84.6768 63.8181 84.0764 63.6343 83.467 63.4848C82.6656 63.2856 81.8804 63.0261 81.1182 62.7084C80.5078 62.4367 79.9768 62.0139 79.5752 61.4799C79.1218 60.8346 78.8969 60.0564 78.9364 59.2687C78.92 58.4777 79.1427 57.7002 79.5752 57.0378C80.0198 56.3893 80.6404 55.8812 81.3639 55.5735C82.2053 55.2159 83.1132 55.0417 84.0272 55.0624C85.2877 55.0087 86.5288 55.3865 87.5455 56.1336C87.9972 56.4852 88.3667 56.9313 88.6281 57.4405C88.8896 57.9498 89.0366 58.51 89.059 59.082H86.376C86.3513 58.8105 86.2704 58.547 86.1385 58.3085C86.0065 58.0699 85.8263 57.8614 85.6095 57.6962C85.08 57.2945 84.4256 57.0926 83.7618 57.1262C83.1476 57.0997 82.5431 57.2873 82.0518 57.6569C81.8313 57.8444 81.6571 58.0804 81.5429 58.3463C81.4286 58.6123 81.3775 58.901 81.3934 59.1901C81.3847 59.3942 81.4177 59.5979 81.4903 59.7888C81.563 59.9798 81.6738 60.1539 81.8159 60.3006C82.112 60.6064 82.4707 60.8444 82.8675 60.9984C83.4367 61.214 84.0174 61.3978 84.607 61.5487C85.424 61.7616 86.2253 62.0308 87.005 62.3546C87.6245 62.6338 88.1649 63.0627 88.5774 63.6027C89.0386 64.2558 89.2671 65.045 89.2261 65.8434C89.2249 66.5971 89.0139 67.3355 88.6167 67.9761C88.1862 68.663 87.5739 69.2175 86.8478 69.578C86.0004 70.0008 85.0624 70.21 84.1156 70.1873C83.1981 70.201 82.2878 70.0236 81.4425 69.6664Z" fill="#052391"/>
<path d="M93.6486 69.4306C92.7616 68.9351 92.0326 68.1993 91.5454 67.3078C91.0188 66.3306 90.7547 65.2335 90.7789 64.1236C90.7549 63.0177 91.0263 61.9253 91.5651 60.9591C92.064 60.0606 92.8067 59.3213 93.7075 58.8265C94.645 58.3288 95.6928 58.0753 96.7541 58.0894C97.8125 58.074 98.8574 58.3276 99.7909 58.8265C100.697 59.3181 101.443 60.0579 101.943 60.9591C102.477 61.9272 102.748 63.0182 102.729 64.1236C102.752 65.235 102.473 66.3318 101.924 67.298C101.399 68.1975 100.638 68.9353 99.7221 69.4306C98.7764 69.9367 97.7186 70.197 96.646 70.1874C95.5981 70.1997 94.5651 69.9389 93.6486 69.4306ZM98.4052 67.6321C98.9622 67.3175 99.4214 66.8549 99.7319 66.2956C100.062 65.6225 100.233 64.883 100.233 64.1335C100.233 63.384 100.062 62.6444 99.7319 61.9714C99.4354 61.4116 98.9854 60.9479 98.4347 60.6348C97.9018 60.3419 97.3032 60.1897 96.6952 60.1925C96.0868 60.1871 95.4875 60.3395 94.9557 60.6348C94.4138 60.9497 93.9738 61.4136 93.6879 61.9714C93.3627 62.6411 93.2042 63.3795 93.226 64.1236C93.158 65.1968 93.5105 66.2542 94.2087 67.072C94.5228 67.3983 94.9023 67.6545 95.3223 67.8239C95.7424 67.9932 96.1935 68.0719 96.646 68.0547C97.2589 68.0669 97.8647 67.9214 98.4052 67.6321Z" fill="#052391"/>
<path d="M107.024 54.2565V69.9809H104.597V54.2565H107.024Z" fill="#052391"/>
<path d="M120.301 58.2761V69.9908H117.874V68.6149C117.473 69.1113 116.957 69.5026 116.37 69.7549C115.752 70.0317 115.082 70.1725 114.405 70.1677C113.544 70.1812 112.693 69.9821 111.928 69.5879C111.197 69.207 110.598 68.6145 110.208 67.8877C109.766 67.0501 109.55 66.112 109.579 65.1654V58.2859H111.977V64.8116C111.919 65.6885 112.201 66.5543 112.764 67.2292C113.35 67.7728 114.121 68.0748 114.921 68.0748C115.721 68.0748 116.491 67.7728 117.078 67.2292C117.648 66.5578 117.934 65.6904 117.874 64.8116V58.2859L120.301 58.2761Z" fill="#052391"/>
<path d="M125.785 60.2515V66.7182C125.764 66.8942 125.78 67.0728 125.833 67.2421C125.885 67.4115 125.973 67.5679 126.09 67.7009C126.395 67.919 126.768 68.0202 127.142 67.9859H128.635V70.0006H126.67C125.77 70.0645 124.878 69.7952 124.164 69.2439C123.85 68.9084 123.613 68.5088 123.469 68.0728C123.325 67.6367 123.277 67.1745 123.328 66.7182V60.2319H121.953V58.2663H123.328V55.318H125.776V58.2663H128.626V60.2319L125.785 60.2515Z" fill="#052391"/>
<path d="M130.463 56.2811C130.319 56.1354 130.205 55.9619 130.129 55.771C130.053 55.5802 130.016 55.3759 130.021 55.1706C130.017 54.9655 130.055 54.7618 130.131 54.5716C130.208 54.3814 130.322 54.2086 130.467 54.0636C130.612 53.9186 130.785 53.8044 130.975 53.7278C131.165 53.6512 131.369 53.6138 131.574 53.6178C131.776 53.6134 131.976 53.6514 132.162 53.7293C132.348 53.8071 132.516 53.9232 132.655 54.0698C132.8 54.2134 132.914 54.3851 132.99 54.5744C133.066 54.7637 133.103 54.9666 133.097 55.1706C133.102 55.3759 133.066 55.5802 132.99 55.771C132.914 55.9619 132.8 56.1354 132.655 56.2811C132.514 56.4246 132.346 56.5378 132.16 56.6138C131.974 56.6899 131.775 56.7272 131.574 56.7233C131.368 56.7289 131.164 56.6925 130.973 56.6165C130.782 56.5405 130.609 56.4263 130.463 56.2811ZM132.763 58.2466V69.9613H130.336V58.2761L132.763 58.2466Z" fill="#052391"/>
<path d="M137.5 69.4306C136.613 68.9351 135.884 68.1993 135.397 67.3078C134.87 66.3306 134.606 65.2335 134.63 64.1236C134.611 63.0182 134.883 61.9272 135.417 60.9591C135.919 60.0599 136.665 59.3207 137.569 58.8265C138.502 58.3276 139.547 58.074 140.606 58.0894C141.667 58.0753 142.715 58.3288 143.652 58.8265C144.553 59.3213 145.296 60.0606 145.795 60.9591C146.317 61.9339 146.59 63.0227 146.59 64.1286C146.59 65.2344 146.317 66.3232 145.795 67.298C145.273 68.1997 144.511 68.9382 143.593 69.4306C142.648 69.9379 141.59 70.1982 140.517 70.1874C139.463 70.2031 138.422 69.9422 137.5 69.4306ZM142.257 67.6321C142.818 67.323 143.278 66.8591 143.583 66.2956C143.913 65.6225 144.085 64.883 144.085 64.1335C144.085 63.384 143.913 62.6444 143.583 61.9714C143.287 61.4116 142.837 60.9479 142.286 60.6348C141.754 60.3407 141.155 60.1884 140.547 60.1925C139.942 60.1883 139.346 60.3407 138.817 60.6348C138.273 60.9466 137.832 61.4113 137.549 61.9714C137.216 62.6385 137.054 63.3782 137.077 64.1236C137.005 65.1973 137.358 66.2563 138.06 67.072C138.372 67.399 138.749 67.6559 139.168 67.8253C139.586 67.9948 140.036 68.073 140.488 68.0547C141.104 68.0695 141.714 67.9239 142.257 67.6321Z" fill="#052391"/>
<path d="M156.851 58.6594C157.577 59.0433 158.173 59.6353 158.561 60.3596C158.994 61.2003 159.207 62.1368 159.18 63.0819V69.9613H156.743V63.4161C156.801 62.5391 156.519 61.6733 155.956 60.9984C155.678 60.7137 155.342 60.4919 154.971 60.3478C154.6 60.2037 154.202 60.1407 153.804 60.1631C153.407 60.1426 153.01 60.2065 152.639 60.3505C152.268 60.4944 151.931 60.7153 151.652 60.9984C151.082 61.6698 150.796 62.5372 150.856 63.4161V69.9613H148.428V58.2761H150.846V59.6127C151.252 59.1222 151.772 58.7377 152.36 58.4923C152.979 58.2207 153.649 58.0833 154.325 58.0894C155.201 58.0676 156.069 58.2634 156.851 58.6594Z" fill="#052391"/>
<path d="M163.504 69.6664C162.822 69.369 162.226 68.9021 161.774 68.3102C161.344 67.7437 161.103 67.0559 161.087 66.3447H163.622C163.643 66.5902 163.717 66.8282 163.839 67.0421C163.961 67.256 164.129 67.4406 164.33 67.583C164.801 67.9299 165.376 68.1066 165.961 68.0842C166.516 68.1185 167.069 67.9813 167.543 67.6911C167.71 67.586 167.849 67.4413 167.947 67.2699C168.044 67.0984 168.098 66.9055 168.104 66.7083C168.117 66.4988 168.064 66.2903 167.951 66.1134C167.838 65.9366 167.671 65.8006 167.475 65.7255C166.843 65.4292 166.185 65.1924 165.509 65.0179C164.781 64.8293 164.066 64.5963 163.367 64.3201C162.808 64.0938 162.313 63.7365 161.922 63.2784C161.503 62.7568 161.289 62.0993 161.322 61.4308C161.321 60.814 161.514 60.2125 161.873 59.7109C162.279 59.1683 162.827 58.7469 163.455 58.4923C164.21 58.185 165.019 58.0346 165.833 58.05C166.987 57.9898 168.125 58.3377 169.047 59.0328C169.453 59.3699 169.781 59.7917 170.007 60.2688C170.232 60.7459 170.351 61.2666 170.354 61.7944H167.936C167.923 61.5519 167.86 61.3148 167.75 61.0982C167.64 60.8816 167.486 60.6903 167.298 60.5365C166.851 60.202 166.302 60.0351 165.745 60.0647C165.231 60.0345 164.72 60.1614 164.281 60.4283C164.118 60.5338 163.985 60.6799 163.895 60.8522C163.806 61.0245 163.762 61.2171 163.77 61.4111C163.766 61.5599 163.794 61.7078 163.851 61.845C163.909 61.9822 163.995 62.1057 164.104 62.2072C164.348 62.4255 164.631 62.5956 164.939 62.7084C165.263 62.8263 165.745 62.9737 166.384 63.1605C167.097 63.3409 167.796 63.5708 168.477 63.8484C169.017 64.0656 169.5 64.4015 169.892 64.8312C170.319 65.3644 170.536 66.0358 170.502 66.7181C170.511 67.3589 170.314 67.9858 169.941 68.5068C169.544 69.0549 169.003 69.4833 168.379 69.7451C166.817 70.3541 165.08 70.3329 163.534 69.6861L163.504 69.6664Z" fill="#052391"/>
<path d="M175.818 52.7921V53.4506H174.501V57.7158H173.696V53.4506H172.379V52.7921H175.818Z" fill="#052391"/>
<path d="M182 52.7921V57.706H181.184V54.3351L179.691 57.706H179.13L177.617 54.3351V57.706H176.811V52.7921H177.676L179.415 56.6544L181.135 52.7921H182Z" fill="#052391"/>
</svg>
