<?xml version="1.0" encoding="utf-8"?>
<!-- Generator: Adobe Illustrator 25.2.3, SVG Export Plug-In . SVG Version: 6.00 Build 0)  -->
<svg version="1.1" id="Layer_1" xmlns="http://www.w3.org/2000/svg" xmlns:xlink="http://www.w3.org/1999/xlink" x="0px" y="0px"
	 viewBox="0 0 135 32" style="enable-background:new 0 0 135 32;" xml:space="preserve">
<g>
	<g>
		<path d="M13.4,17.3c-0.2-0.2-0.4-0.4-0.7-0.5c-0.3-0.1-0.5-0.2-0.8-0.2c-0.3,0-0.6,0.1-0.8,0.2c-0.3,0.1-0.5,0.3-0.7,0.5
			c-0.2,0.2-0.3,0.4-0.5,0.7c-0.1,0.3-0.2,0.6-0.2,0.9s0.1,0.6,0.2,0.9c0.1,0.3,0.3,0.5,0.5,0.7c0.2,0.2,0.4,0.4,0.7,0.5
			c0.3,0.1,0.5,0.2,0.8,0.2c0.3,0,0.6-0.1,0.8-0.2c0.3-0.1,0.5-0.3,0.7-0.5c0.2-0.2,0.3-0.4,0.5-0.7c0.1-0.3,0.2-0.5,0.2-0.8
			c0-0.3-0.1-0.6-0.2-0.9C13.7,17.7,13.6,17.5,13.4,17.3z"/>
		<path d="M23.7,17.3c-0.2-0.2-0.4-0.4-0.7-0.5c-0.3-0.1-0.5-0.2-0.8-0.2c-0.3,0-0.6,0.1-0.8,0.2c-0.3,0.1-0.5,0.3-0.7,0.5
			s-0.3,0.4-0.5,0.7c-0.1,0.3-0.2,0.6-0.2,0.9s0.1,0.6,0.2,0.9c0.1,0.3,0.3,0.5,0.5,0.7c0.2,0.2,0.4,0.4,0.7,0.5
			c0.3,0.1,0.5,0.2,0.8,0.2c0.3,0,0.6-0.1,0.8-0.2c0.3-0.1,0.5-0.3,0.7-0.5c0.2-0.2,0.3-0.4,0.5-0.7c0.1-0.3,0.2-0.5,0.2-0.8
			c0-0.3-0.1-0.6-0.2-0.9C24,17.7,23.9,17.5,23.7,17.3z"/>
		<path d="M30.4,0H3.8C2.3,0,1.1,1.2,1.1,2.7v26.7c0,1.5,1.2,2.7,2.7,2.7h26.6c1.5,0,2.7-1.2,2.7-2.7V2.7C33.1,1.2,31.9,0,30.4,0z
			 M27.4,20.8c-0.2,0.6-0.6,1.2-1,1.6c-0.4,0.5-0.9,0.8-1.5,1.1C24.3,23.9,23.7,24,23,24c-1.2,0-2.2-0.5-2.9-1.4v1.1h-3.3v-2.2
			c-0.2,0.3-0.4,0.7-0.7,0.9c-0.4,0.5-0.9,0.8-1.5,1.1C14,23.9,13.4,24,12.7,24c-1.2,0-2.2-0.5-2.9-1.4v1.1H6.5V8h3.3v7
			c0.8-0.8,1.8-1.3,2.9-1.3c0.7,0,1.3,0.1,1.9,0.4c0.6,0.3,1.1,0.6,1.5,1.1c0.2,0.3,0.4,0.6,0.6,0.9V8h3.3v7
			c0.8-0.8,1.8-1.3,2.9-1.3c0.7,0,1.3,0.1,1.9,0.4c0.6,0.3,1.1,0.6,1.5,1.1c0.4,0.5,0.7,1,1,1.6c0.2,0.6,0.3,1.3,0.3,2
			C27.8,19.5,27.7,20.2,27.4,20.8z"/>
	</g>
	<g>
		<path d="M42.8,22.7L42.8,22.7l-0.4,1.3h-2.9V7.2h3.7v4L43.2,13c0.9-0.8,2-1.3,3.1-1.3c2.9,0,4.7,2.4,4.7,6c0,4.1-2.4,6.5-5,6.5
			C44.9,24.2,43.8,23.7,42.8,22.7z M47.1,17.8c0-2.1-0.6-3.1-1.9-3.1c-0.7,0-1.3,0.3-1.9,1v4.7c0.6,0.5,1.2,0.7,1.8,0.7
			C46.2,21.2,47.1,20.3,47.1,17.8z"/>
		<path d="M53.1,19.4V12h3.7v6.9c0,1.7,0.4,2.1,1.4,2.1c0.8,0,1.3-0.3,2-1.2V12H64v11.9h-3l-0.3-1.6h-0.1c-1,1.2-2.1,1.9-3.7,1.9
			C54.2,24.2,53.1,22.4,53.1,19.4z"/>
		<path d="M66.3,18c0-3.9,2.4-6.2,4.9-6.2c1.3,0,2.1,0.5,2.9,1.2L74,11.2v-4h3.7v16.8h-3l-0.3-1.2h-0.1c-0.8,0.8-2,1.4-3.1,1.4
			C68.2,24.2,66.3,21.9,66.3,18z M74,20.2v-4.8c-0.6-0.5-1.3-0.7-1.9-0.7c-1.1,0-2,1-2,3.2c0,2.3,0.8,3.2,2,3.2
			C72.9,21.2,73.4,20.9,74,20.2z"/>
		<path d="M80.3,8.4c0-1.2,0.9-1.9,2.1-1.9c1.2,0,2.1,0.7,2.1,1.9c0,1.2-0.9,1.9-2.1,1.9C81.2,10.3,80.3,9.6,80.3,8.4z M80.5,12h3.7
			v11.9h-3.7V12z"/>
		<path d="M90.4,22.7L90.4,22.7L90,23.9h-2.9V7.2h3.7v4L90.7,13c0.9-0.8,2-1.3,3.1-1.3c2.9,0,4.7,2.4,4.7,6c0,4.1-2.4,6.5-5,6.5
			C92.4,24.2,91.3,23.7,90.4,22.7z M94.6,17.8c0-2.1-0.6-3.1-1.9-3.1c-0.7,0-1.3,0.3-1.9,1v4.7c0.6,0.5,1.2,0.7,1.8,0.7
			C93.7,21.2,94.6,20.3,94.6,17.8z"/>
		<path d="M100.1,20.6c0-2.5,1.9-3.9,6.6-4.4c-0.1-1-0.6-1.6-1.8-1.6c-1,0-1.9,0.3-3.1,1l-1.3-2.4c1.6-1,3.3-1.6,5.1-1.6
			c3.1,0,4.8,1.7,4.8,5.4v6.8h-3l-0.3-1.2H107c-1,0.9-2.1,1.5-3.4,1.5C101.4,24.2,100.1,22.6,100.1,20.6z M106.7,20.4v-1.9
			c-2.4,0.3-3.1,1-3.1,1.8c0,0.7,0.5,1,1.3,1C105.6,21.4,106.1,21,106.7,20.4z"/>
		<path d="M112.1,22.4l1.6-2.1c1.1,0.9,2.2,1.2,3.1,1.2c1,0,1.4-0.4,1.4-0.9c0-0.7-1-1-2.3-1.5c-1.7-0.6-3.1-1.7-3.1-3.6
			c0-2.3,1.8-3.8,4.6-3.8c1.8,0,3.2,0.6,4.3,1.5l-1.6,2.1c-0.9-0.6-1.8-0.9-2.6-0.9c-0.9,0-1.3,0.3-1.3,0.9c0,0.6,0.7,0.9,2.2,1.4
			c1.8,0.6,3.3,1.7,3.3,3.6c0,2.2-1.7,3.9-5,3.9C115.1,24.2,113.3,23.6,112.1,22.4z"/>
		<path d="M123.1,18c0-3.9,2.8-6.2,5.6-6.2c3.5,0,5.1,2.5,5.1,5.7c0,0.7-0.1,1.3-0.1,1.6h-7c0.3,1.6,1.5,2.3,3,2.3
			c0.9,0,1.7-0.3,2.6-0.7l1.2,2.2c-1.2,0.9-2.9,1.3-4.3,1.3C125.7,24.2,123.1,22,123.1,18z M130.7,16.6c0-1.2-0.5-2.1-1.9-2.1
			c-1.1,0-1.9,0.7-2.2,2.1H130.7z"/>
	</g>
</g>
</svg>
