<svg width="157" height="39" fill="none" xmlns="http://www.w3.org/2000/svg"><path d="M21.316 0l-9.478 2.442v.207l2.07 1.16c1.2.662 1.407 1.116 1.407 2.648v2.897a17.984 17.984 0 00-3.353-.29C5.132 9.065 0 13.95 0 21.277c0 6.333 3.353 10.141 8.237 10.141 3.311 0 5.754-2.07 7.203-5.836v5.423h8.485v-.952h-2.607V0h-.002zm-6.001 21.152c0 4.635-1.45 6.581-3.643 6.581-2.939 0-5.38-3.394-5.38-9.354 0-5.588 1.986-8.486 4.966-8.486 1.533 0 3.105.911 4.057 3.063v8.196zM100.624 9.065c-3.31 0-5.754 2.07-7.202 5.836V9.478H78.189v.208l3.437 3.105c.827.787 1.117 1.406 1.117 2.193 0 .498-.082 1.035-.372 1.697l-3.6 8.65-6.418-14.9h3.56V9.48H64.242V0l-8.65 2.442v.207l1.572 1.16c.91.662 1.077 1.116 1.077 2.648v23.594h-4.554V9.023l-8.65 2.442v.207l1.572 1.159c.91.662 1.077 1.117 1.077 2.65v14.57H42.8V16.39c0-4.719-2.236-7.326-9.107-7.326C28.19 9.065 25 11.59 25 14.529c0 1.946 1.407 3.352 3.353 3.352 1.946 0 3.31-1.406 3.31-3.352 0-1.904-1.448-3.229-3.393-3.229-.166 0-.332 0-.498.042 1.077-.703 2.566-1.159 4.18-1.159 3.395 0 5.175 1.862 5.175 4.76 0 2.567-1.2 3.601-3.395 4.388l-4.015 1.407c-3.477 1.2-4.843 2.691-4.843 5.175 0 3.186 2.401 5.504 5.67 5.504 2.815 0 5.009-1.656 6.5-4.885v4.47h29.802v-.951H64.24V10.43h1.448l9.934 22.435-.372.869c-1.117 2.691-2.483 3.85-4.18 4.098.87-.538 1.367-1.532 1.367-2.691 0-1.863-1.325-3.147-3.147-3.147-1.946 0-3.353 1.367-3.353 3.229 0 2.36 1.657 3.642 4.14 3.642 2.815 0 4.636-1.366 6.126-4.884l9.892-23.552h1.449V37.5h-2.608v.952h12.377V37.5h-3.766v-6.373c1.117.207 2.193.29 3.352.29 6.829 0 11.962-4.886 11.962-12.212.002-6.333-3.351-10.141-8.236-10.141zM36.798 23.138c0 3.187-.911 4.885-2.815 4.885-1.862 0-3.27-1.78-3.27-4.14 0-1.862.827-2.856 3.062-3.642l3.022-1.035v3.932zm60.805 7.45c-1.532 0-3.105-.91-4.056-3.062V19.33c0-4.635 1.449-6.581 3.642-6.581 2.939 0 5.381 3.394 5.381 9.354 0 5.588-1.988 8.485-4.967 8.485zM131.213 31.002v-.951h-2.608V16.39c0-4.719-2.235-7.326-9.106-7.326-5.505 0-8.693 2.525-8.693 5.464 0 1.946 1.407 3.352 3.352 3.352 1.946 0 3.311-1.406 3.311-3.352 0-1.904-1.448-3.229-3.394-3.229-.166 0-.332 0-.497.042 1.076-.703 2.565-1.159 4.18-1.159 3.394 0 5.174 1.862 5.174 4.76 0 2.567-1.201 3.601-3.394 4.388l-4.016 1.407c-3.476 1.2-4.843 2.691-4.843 5.175 0 3.186 2.401 5.504 5.671 5.504 2.814 0 5.008-1.656 6.499-4.885v4.47h8.364zm-8.61-7.864c0 3.187-.911 4.885-2.815 4.885-1.862 0-3.27-1.78-3.27-4.14 0-1.862.827-2.856 3.063-3.642l3.021-1.035v3.932h.001z" fill="#FF4C00"/><path d="M149.757 12.831l2.152-3.146v-.208h-9.396v.208l3.436 3.104c.827.787 1.117 1.407 1.117 2.194 0 .497-.082.951-.331 1.572l-3.643 8.776-6.415-14.901h3.56v-.952h-12.252v.952h2.028l9.934 22.434-.372.87c-1.117 2.69-2.483 3.85-4.18 4.097.869-.537 1.367-1.532 1.367-2.69 0-1.863-1.325-3.147-3.147-3.147-1.946 0-3.352 1.366-3.352 3.229 0 2.36 1.656 3.642 4.139 3.642 2.815 0 4.677-1.366 6.126-4.885l7.244-17.302c.868-2.067 1.198-2.646 1.985-3.847zM155.115 30.05a3.789 3.789 0 10-6.08 0h-1.887v.952H157v-.951h-1.885zM50.54 7.452a3.726 3.726 0 100-7.452 3.726 3.726 0 000 7.452z" fill="#FF4C00"/></svg>