<?xml version="1.0" encoding="utf-8"?>
<!-- Generator: Adobe Illustrator 22.1.0, SVG Export Plug-In . SVG Version: 6.00 Build 0)  -->
<svg width="141" height="24" viewBox="0 0 141 24" fill="none" xmlns="http://www.w3.org/2000/svg">
    <path d="M7.19558 0.773806C9.68038 0.773806 11.7511 1.64219 13.4076 3.37896C15.0814 5.11572 15.9183 7.25659 15.9183 9.80155C15.9183 12.3465 15.0814 14.4874 13.4076 16.2241C11.7511 17.9609 9.68038 18.8293 7.19558 18.8293H0V0.773806H7.19558ZM7.19558 15.4245C8.76584 15.4245 10.0428 14.9087 11.0263 13.8769C12.0099 12.828 12.5017 11.4695 12.5017 9.80155C12.5017 8.13357 12.0099 6.78371 11.0263 5.75196C10.0428 4.70303 8.76584 4.17856 7.19558 4.17856H3.57191V15.4245H7.19558Z" fill="currentColor"></path>
    <path d="M19.6944 4.3849C19.1422 4.3849 18.6591 4.18715 18.2449 3.79165C17.8481 3.37896 17.6496 2.89748 17.6496 2.34721C17.6496 1.79695 17.8481 1.31547 18.2449 0.902773C18.6591 0.490077 19.1422 0.283729 19.6944 0.283729C20.2639 0.283729 20.747 0.490077 21.1439 0.902773C21.558 1.31547 21.7651 1.79695 21.7651 2.34721C21.7651 2.89748 21.558 3.37896 21.1439 3.79165C20.747 4.18715 20.2639 4.3849 19.6944 4.3849ZM18.0379 18.8293V5.93252H21.3768V18.8293H18.0379Z" fill="currentColor"></path>
    <path d="M27.1531 9.5952C27.1531 9.93912 27.3774 10.2228 27.826 10.4464C28.2919 10.6527 28.8528 10.8419 29.5085 11.0138C30.1642 11.1686 30.8199 11.375 31.4756 11.6329C32.1313 11.8736 32.6835 12.2863 33.1321 12.871C33.598 13.4556 33.831 14.1865 33.831 15.0634C33.831 16.3875 33.3306 17.4107 32.3298 18.1329C31.3462 18.8379 30.1124 19.1904 28.6284 19.1904C25.9711 19.1904 24.1592 18.1673 23.1929 16.121L26.0919 14.496C26.4715 15.6137 27.317 16.1726 28.6284 16.1726C29.8191 16.1726 30.4144 15.8029 30.4144 15.0634C30.4144 14.7195 30.1814 14.4444 29.7155 14.238C29.2669 14.0145 28.7147 13.8167 28.059 13.6448C27.4033 13.4728 26.7476 13.2579 26.0919 13C25.4361 12.742 24.8753 12.3379 24.4094 11.7877C23.9608 11.2202 23.7365 10.5152 23.7365 9.67258C23.7365 8.4001 24.2024 7.40275 25.1342 6.68053C26.0832 5.94112 27.2566 5.57141 28.6543 5.57141C29.7069 5.57141 30.6646 5.81215 31.5274 6.29363C32.3902 6.75791 33.0717 7.42854 33.5722 8.30552L30.725 9.85314C30.3109 8.97616 29.6206 8.53767 28.6543 8.53767C28.2229 8.53767 27.8606 8.63224 27.5672 8.8214C27.2911 9.01055 27.1531 9.26849 27.1531 9.5952Z" fill="currentColor"></path>
    <path d="M43.3779 5.57141C45.1207 5.57141 46.6047 6.23344 47.8299 7.55751C49.0723 8.86439 49.6935 10.4722 49.6935 12.3809C49.6935 14.2896 49.0723 15.906 47.8299 17.2301C46.6047 18.537 45.1207 19.1904 43.3779 19.1904C41.5661 19.1904 40.1684 18.5628 39.1848 17.3075V23.988H35.8459V5.93252H39.1848V7.45434C40.1684 6.19905 41.5661 5.57141 43.3779 5.57141ZM40.1943 15.0119C40.8672 15.6825 41.7214 16.0178 42.7567 16.0178C43.792 16.0178 44.6462 15.6825 45.3192 15.0119C46.0094 14.324 46.3545 13.447 46.3545 12.3809C46.3545 11.3148 46.0094 10.4464 45.3192 9.77576C44.6462 9.08793 43.792 8.74402 42.7567 8.74402C41.7214 8.74402 40.8672 9.08793 40.1943 9.77576C39.5213 10.4464 39.1848 11.3148 39.1848 12.3809C39.1848 13.447 39.5213 14.324 40.1943 15.0119Z" fill="currentColor"></path>
    <path d="M51.7894 18.8293V0H55.1284V18.8293H51.7894Z" fill="currentColor"></path>
    <path d="M67.7613 5.93252H71.1002V18.8293H67.7613V17.3075C66.7605 18.5628 65.3541 19.1904 63.5423 19.1904C61.8167 19.1904 60.3327 18.537 59.0903 17.2301C57.8652 15.906 57.2526 14.2896 57.2526 12.3809C57.2526 10.4722 57.8652 8.86439 59.0903 7.55751C60.3327 6.23344 61.8167 5.57141 63.5423 5.57141C65.3541 5.57141 66.7605 6.19905 67.7613 7.45434V5.93252ZM61.601 15.0119C62.274 15.6825 63.1281 16.0178 64.1635 16.0178C65.1988 16.0178 66.053 15.6825 66.7259 15.0119C67.4162 14.324 67.7613 13.447 67.7613 12.3809C67.7613 11.3148 67.4162 10.4464 66.7259 9.77576C66.053 9.08793 65.1988 8.74402 64.1635 8.74402C63.1281 8.74402 62.274 9.08793 61.601 9.77576C60.9281 10.4464 60.5916 11.3148 60.5916 12.3809C60.5916 13.447 60.9281 14.324 61.601 15.0119Z" fill="currentColor"></path>
    <path d="M82.3071 5.93252H85.879L81.1683 18.8293C80.4953 20.6864 79.598 22.0277 78.4764 22.8531C77.372 23.6957 75.9916 24.074 74.335 23.988V20.8928C75.2323 20.91 75.9398 20.7208 76.4575 20.3253C76.9924 19.9298 77.4152 19.2936 77.7258 18.4166L72.4197 5.93252H76.0692L79.4341 14.5992L82.3071 5.93252Z" fill="currentColor"></path>
    <path d="M97.8473 0.773806H101.419V18.8293H98.7014L90.9364 7.78965V18.8293H87.3645V0.773806H90.0822L97.8473 11.7877V0.773806Z" fill="currentColor"></path>
    <path d="M115.392 17.2301C114.064 18.537 112.442 19.1904 110.526 19.1904C108.611 19.1904 106.989 18.537 105.66 17.2301C104.349 15.906 103.693 14.2896 103.693 12.3809C103.693 10.4722 104.349 8.86439 105.66 7.55751C106.989 6.23344 108.611 5.57141 110.526 5.57141C112.442 5.57141 114.064 6.23344 115.392 7.55751C116.721 8.86439 117.385 10.4722 117.385 12.3809C117.385 14.2896 116.721 15.906 115.392 17.2301ZM108.016 14.9345C108.689 15.6051 109.525 15.9404 110.526 15.9404C111.527 15.9404 112.364 15.6051 113.037 14.9345C113.71 14.2638 114.046 13.4126 114.046 12.3809C114.046 11.3492 113.71 10.498 113.037 9.82734C112.364 9.15671 111.527 8.8214 110.526 8.8214C109.525 8.8214 108.689 9.15671 108.016 9.82734C107.36 10.498 107.032 11.3492 107.032 12.3809C107.032 13.4126 107.36 14.2638 108.016 14.9345Z" fill="currentColor"></path>
    <path d="M126.6 9.13092H123.675V14.496C123.675 14.9431 123.787 15.2698 124.012 15.4761C124.236 15.6825 124.564 15.8029 124.995 15.8372C125.427 15.8544 125.962 15.8458 126.6 15.8115V18.8293C124.305 19.0872 122.683 18.8723 121.734 18.1845C120.802 17.4966 120.336 16.2671 120.336 14.496V9.13092H118.084V5.93252H120.336V3.32737L123.675 2.32142V5.93252H126.6V9.13092Z" fill="currentColor"></path>
    <path d="M131.112 13.748C131.561 15.3644 132.777 16.1726 134.762 16.1726C136.039 16.1726 137.005 15.7427 137.661 14.8829L140.353 16.4305C139.076 18.2704 137.195 19.1904 134.71 19.1904C132.57 19.1904 130.853 18.5456 129.559 17.2559C128.265 15.9662 127.618 14.3412 127.618 12.3809C127.618 10.4378 128.256 8.8214 129.533 7.53172C130.81 6.22485 132.45 5.57141 134.451 5.57141C136.349 5.57141 137.911 6.22485 139.136 7.53172C140.378 8.83859 141 10.455 141 12.3809C141 12.8108 140.957 13.2665 140.87 13.748H131.112ZM131.06 11.1686H137.661C137.471 10.2916 137.074 9.63819 136.47 9.2083C135.883 8.77841 135.21 8.56346 134.451 8.56346C133.554 8.56346 132.812 8.7956 132.225 9.25989C131.639 9.70697 131.25 10.3432 131.06 11.1686Z" fill="currentColor"></path>
</svg>