<?xml version="1.0" encoding="utf-8"?>
<!-- Generator: Adobe Illustrator 22.1.0, SVG Export Plug-In . SVG Version: 6.00 Build 0)  -->
<svg version="1.1" id="Layer_1" xmlns="http://www.w3.org/2000/svg" xmlns:xlink="http://www.w3.org/1999/xlink" x="0px" y="0px"
	 viewBox="0 0 1080 340" enable-background="new 0 0 1080 340" xml:space="preserve">
<path fill="#0C394D" d="M1030,69.9c-38.2-39.5-88.3-47.6-118.7-49.6c-34.6-1.8-69.2,1.7-102.8,10.5c-62.4,15.5-110.9,66.2-122,119.5
	c-9.9,48.4,2.1,98.4,43.5,132.4c36.1,29.5,84.1,37,136.6,37.2c74.9,0,146-32.9,179.9-91C1074.3,181.2,1068.5,109.7,1030,69.9z
	 M945.3,201.9c-17.9,37.2-51.8,52.4-89.4,48.6c-61.9-6.2-70.4-79-47-122.4c11.9-22.1,37.6-40.6,65.9-42.9c12-0.9,25.9-0.9,37.5,3.2
	C956.2,102.3,965.1,161,945.3,201.9z"/>
<path fill="#0C394D" d="M548.7,85.3c7.7-0.6,20.6,0.5,29.8,2.3c24.4,4.9,38.6,11.6,60.8,22.7c8.6-20.5,19.6-38.4,33.8-55.9
	c-10.8-6.6-26.7-14.8-39.2-19.1c-23.8-8.2-41.3-12.9-65-14.4c-57.8-3.9-115.8,10.7-143.4,55c-14.8,23.8-14.3,57.6,6.8,78.8
	c23.1,23.2,56.1,28.4,86,39.3c11.3,4.1,20.7,6.3,28.2,15.8c7.3,9.1,5.7,19,1.7,25.5c-7.1,11.5-21.5,14.8-35,15
	c-25.9,0.4-50.9-4.2-75.1-13.2c-4.1-1.5-14.7-6.1-20.9-9.2c-11.5,20.9-25.7,40.2-42.2,57.5c32.6,18.4,68.7,29.8,105.9,33.4
	c45.3,4.3,93,1.2,129.1-18.5c36.1-19.7,56.3-58.1,49.1-94.2c-9-45-68-57.2-108.6-72.4c-9.8-3.7-19.2-7.1-26.7-14
	c-4.9-4.5-6.7-14-3.6-20.3C524.9,89.3,537.6,85.9,548.7,85.3z"/>
<path fill="#0C394D" d="M256.8,230.3c-18.3,16.3-42.2,22.9-68,20.3c-32.2-3.3-50-24.5-56.2-50.3h116h30.2h112.4
	c12.5-44.5,2.9-98-28.4-130.3c-38.2-39.5-88.2-47.6-118.7-49.6c-34.6-1.8-69.3,1.7-102.8,10.5C79,46.5,30.5,97.1,19.5,150.4
	c-9.9,48.4,2.1,98.4,43.5,132.3c36.1,29.6,84,37,136.5,37.2c74.4,0,144.9-32.4,179-89.6H256.8z M141.9,128.2
	c11.9-22.2,37.5-40.7,65.9-42.9c12-0.9,25.9-0.9,37.6,3.2c21.9,6.9,35.1,25.2,40.2,46.8H138.4C139.5,132.8,140.7,130.5,141.9,128.2z
	"/>
</svg>
