<?xml version="1.0" encoding="utf-8"?>
<!-- Generator: Adobe Illustrator 22.1.0, SVG Export Plug-In . SVG Version: 6.00 Build 0)  -->
<svg version="1.1" viewBox="0 0 113 62"
	xmlns="http://www.w3.org/2000/svg"
	xmlns:xlink="http://www.w3.org/1999/xlink">
	<title>gcd.</title>
	<defs>
		<path id="a" d="m106.97 47.079c-3.3321 0-6.0332-2.7881-6.0332-6.2274 0-3.4393 2.7011-6.2274 6.0332-6.2274 3.332 0 6.0331 2.7881 6.0331 6.2274 0 3.4393-2.7011 6.2274-6.0331 6.2274zm-73.603-2.9513c0 3.0307-0.42232 5.6669-1.267 7.9087-0.84465 2.2419-2.0312 4.0997-3.5596 5.5735-1.5284 1.4738-3.3886 2.574-5.5807 3.3005-2.1921 0.72653-4.6154 1.0898-7.27 1.0898-2.6546 0-5.3796-0.41515-8.175-1.2455-2.7954-0.83032-5.2187-2.0343-7.27-3.6119l4.9472-7.286c1.448 1.3285 3.0468 2.3145 4.7964 2.958 1.7496 0.6435 3.4691 0.96524 5.1584 0.96524 2.8959 0 5.0377-0.78879 6.4253-2.3664 1.3876-1.5776 2.0815-3.6741 2.0815-6.2896v-1.8682h-0.181c-0.92509 1.2455-2.1719 2.2418-3.7406 2.9891-1.5686 0.74729-3.3585 1.1209-5.3695 1.1209-2.2926 0-4.3238-0.42553-6.0935-1.2766-1.7697-0.85108-3.268-2.0031-4.4947-3.4562-1.2268-1.4531-2.1619-3.1448-2.8054-5.0753-0.64354-1.9305-0.96531-3.9751-0.96531-6.1339 0-2.1588 0.32177-4.2138 0.96531-6.1651 0.64354-1.9513 1.5787-3.6741 2.8054-5.1687 1.2268-1.4946 2.725-2.6881 4.4947-3.5807 1.7697-0.89259 3.7808-1.3389 6.0332-1.3389 1.8904 0 3.7003 0.3944 5.4299 1.1832 1.7295 0.78881 3.1171 2.0135 4.1629 3.6741h0.12066v-3.9855h9.3514v28.085zm-9.8473-15.7c-0.34189-0.95486-0.83459-1.7955-1.4781-2.5221-0.64354-0.72653-1.4077-1.2974-2.2926-1.7125-0.88487-0.41516-1.8904-0.62273-3.0166-0.62273s-2.1217 0.20757-2.9864 0.62273c-0.86476 0.41516-1.5988 0.97562-2.2021 1.6814-0.60332 0.70578-1.0659 1.5361-1.3876 2.4909-0.32177 0.95487-0.48266 1.972-0.48266 3.0514 0 1.0379 0.16089 2.0343 0.48266 2.9891 0.32177 0.95486 0.78431 1.7955 1.3876 2.5221 0.60332 0.72653 1.3374 1.3077 2.2021 1.7437 0.86476 0.43592 1.8602 0.65387 2.9864 0.65387s2.1418-0.21795 3.0468-0.65387c0.90498-0.43592 1.6692-1.0068 2.2926-1.7125 0.62343-0.70578 1.1061-1.5361 1.448-2.4909 0.34188-0.95487 0.51281-1.972 0.51281-3.0514 0 0-0.17094-2.0343-0.51281-2.9891zm35.664-2.3535c-0.56176-0.73885-1.3214-1.3347-2.2788-1.7877-0.96531-0.45667-1.9507-0.685-2.9563-0.685-1.0458 0-1.9909 0.21795-2.8356 0.65387-0.84465 0.43591-1.5686 1.0171-2.1719 1.7437-0.60332 0.72653-1.0759 1.5672-1.4178 2.5221-0.34189 0.95487-0.51282 1.972-0.51282 3.0514 0 1.0794 0.16088 2.0965 0.48265 3.0514 0.32177 0.95486 0.79437 1.7955 1.4178 2.5221 0.62343 0.72654 1.3675 1.2974 2.2323 1.7125 0.86477 0.41516 1.8401 0.62273 2.9261 0.62273 1.0055 0 2.001-0.19719 2.9864-0.5916 0.87666-0.35087 1.6021-0.84137 2.1764-1.4715 0.095106 0.35494 0.19922 0.70755 0.31235 1.0578 0.7104 2.1998 1.7427 4.1361 3.0969 5.8088 0.27912 0.34479 0.57098 0.67545 0.87556 0.992-0.98202 0.69622-2.1202 1.2761-3.4144 1.7395-1.9708 0.70576-4.0623 1.0587-6.2745 1.0587-2.3731 0-4.5852-0.37364-6.6365-1.1209-2.0513-0.74729-3.8311-1.8371-5.3394-3.2694-1.5083-1.4323-2.6948-3.1656-3.5596-5.1998-0.86476-2.0343-1.2971-4.3384-1.2971-6.9124 0-2.5325 0.43237-4.8158 1.2971-6.8501 0.86476-2.0343 2.0513-3.7675 3.5596-5.1998 1.5083-1.4323 3.2881-2.5325 5.3394-3.3005 2.0513-0.76805 4.2433-1.1521 6.5762-1.1521 1.086 0 2.1619 0.10379 3.2278 0.31138 1.0659 0.20757 2.0915 0.4878 3.0769 0.84069 0.98542 0.35289 1.8904 0.7888 2.7149 1.3077 0.27204 0.17121 0.53204 0.34807 0.77999 0.53058-0.2983 0.30626-0.58473 0.62664-0.85931 0.96115-1.3542 1.6499-2.3976 3.5632-3.1302 5.7401-0.14587 0.43343-0.27722 0.87094-0.39403 1.3126zm28.193 21.004v-4.0478h-0.12067c-0.96531 1.5776-2.3429 2.7919-4.1327 3.643-1.7899 0.85108-3.6903 1.2766-5.7014 1.2766-2.2524 0-4.2634-0.45667-6.0332-1.37-1.7697-0.91335-3.268-2.1277-4.4947-3.643-1.2268-1.5153-2.1619-3.2693-2.8054-5.2621-0.64354-1.9928-0.96531-4.0685-0.96531-6.2274s0.33182-4.2242 0.99548-6.1962c0.66366-1.972 1.6088-3.7053 2.8356-5.1998 1.2268-1.4946 2.7149-2.6778 4.4646-3.5496 1.7496-0.87184 3.7104-1.3077 5.8824-1.3077 2.2122 0 4.0825 0.43591 5.6109 1.3077 1.5284 0.87183 2.7149 1.8267 3.5596 2.8646h0.12066v-19.367h9.8944v47.079h-9.1101zm-0.36199-15.568c0-0.99638-0.17094-1.972-0.51282-2.9269-0.34188-0.95486-0.82453-1.8059-1.448-2.5532-0.62343-0.74729-1.3776-1.3493-2.2624-1.8059-0.88486-0.45668-1.8904-0.685-3.0166-0.685-1.1664 0-2.1921 0.22832-3.0769 0.685-0.88486 0.45667-1.629 1.0483-2.2323 1.7748-0.60332 0.72653-1.0558 1.5672-1.3575 2.5221-0.30167 0.95487-0.45249 1.9305-0.45249 2.9269s0.15082 1.9824 0.45249 2.958c0.30166 0.97562 0.75415 1.8371 1.3575 2.5843s1.3474 1.3493 2.2323 1.8059c0.88487 0.45667 1.9105 0.685 3.0769 0.685 1.1262 0 2.1317-0.22833 3.0166-0.685 0.88487-0.45668 1.639-1.0587 2.2624-1.8059 0.62344-0.74729 1.1061-1.5983 1.448-2.5532 0.34189-0.95486 0.51282-1.9305 0.51282-2.9269z"></path>
	</defs>
	<g fill="none" fill-rule="evenodd">
		<mask fill="white">
			<use xlink:href="#a"></use>
		</mask>
		<use fill="#fc3823" xlink:href="#a"></use>
	</g>
</svg>