<?xml version="1.0" encoding="utf-8"?>
<!-- Generator: Adobe Illustrator 26.0.1, SVG Export Plug-In . SVG Version: 6.00 Build 0)  -->
<svg version="1.1" id="Layer_1" xmlns="http://www.w3.org/2000/svg" xmlns:xlink="http://www.w3.org/1999/xlink" x="0px" y="0px"
	 viewBox="0 0 1200 271.6" style="enable-background:new 0 0 1200 271.6;" xml:space="preserve">
<style type="text/css">
	.st0{fill:#FFD35C;}
	.st1{fill:#2A303B;}
	.st2{fill:#00467A;}
	.st3{fill:#232E54;}
	.st4{fill:#E2673D;}
	.st5{fill:#FFB945;}
	.st6{fill:#14A0DC;}
	.st7{fill:#FFFFFF;}
	.st8{fill:#1C7CB0;}
	.st9{fill:#424650;}
	.st10{fill:#FFAC37;}
	.st11{fill:#D04552;}
	.st12{fill:#3DB088;}
</style>
<g>
	<path class="st3" d="M317.7,135.7c0-54.7,35.1-86.9,79.7-86.9c38.2,0,68.5,23.3,73.1,56.9h-36.1c-4.5-16-18-25.3-36.4-25.3
		c-25.8,0-44.1,19.8-44.1,55c0,35.3,17.1,55.3,43.7,55.3c24.1,0,38.5-13.8,39.1-34.2h-36.9v-26.9h72.1v90.3h-24.4l-2.1-19.3h-0.9
		c-11.4,13.8-26.4,21.6-47.1,21.6C350.1,222.2,317.7,189.1,317.7,135.7z"/>
	<path class="st3" d="M490.8,157.2c0-39.1,24.1-65.5,61.4-65.5c33.5,0,59.5,21.3,59.5,64.3v9.6h-86.2v0.1
		c0,18.9,11.1,30.5,28.7,30.5c11.7,0,20.8-5,24.3-14.7l32.5,2.1c-4.9,23.5-26,38.7-57.4,38.7C514.6,222.4,490.8,197.4,490.8,157.2z
		 M578.6,143.9c-0.1-15.1-10.6-26-25.9-26c-15.6,0-26.5,11.5-27.3,26H578.6z"/>
	<path class="st3" d="M627.7,184.6c0-28.3,22.5-36.7,47.6-39c22-2.1,30.7-3.2,30.7-11.4v-0.5c0-10.4-6.8-16.4-18.8-16.4
		c-12.6,0-20.1,6.2-22.5,14.6l-32.5-2.6c4.9-23.1,24.8-37.6,55.1-37.6c28.2,0,53.7,12.7,53.7,42.9v85.4h-33.3v-17.6h-1
		c-6.2,11.8-18.3,19.9-37,19.9C645.6,222.3,627.7,209.6,627.7,184.6z M706.1,174.7v-13.4c-4.2,2.8-16.7,4.6-24.4,5.7
		c-12.4,1.7-20.5,6.6-20.5,16.5c0,9.6,7.7,14.7,18.5,14.7C695.2,198.1,706.1,188,706.1,174.7z"/>
	<path class="st3" d="M766.3,93.4h34v22.1h1.3c4.6-15.7,16.2-23.9,30.4-23.9c6.8,0,12.7,1.8,17.3,4.6l-10.5,29
		c-3.3-1.6-7.2-3-11.9-3c-14.2,0-25.4,10.6-25.5,26.1v71.6h-35.1V93.4z"/>
	<path class="st3" d="M932.4,131.4c-1.7-8.2-9-14.8-21.2-14.8c-10.9,0-19.4,4.9-19.4,12.5c-0.1,6.1,4.3,10.1,16.1,12.7l22.9,4.6
		c24.6,5,36.5,16,36.6,34.3c-0.1,25-23.6,41.7-56.4,41.7c-33.5,0-54.1-14.9-57.4-39.1l34.5-1.8c2.1,10.3,10.5,15.7,23,15.7
		c12.3,0,20.4-5.4,20.6-12.9c-0.2-6.3-5.2-10.4-16.2-12.6l-21.9-4.4c-24.7-4.9-36.7-17.2-36.6-36.2c-0.1-24.4,21.3-39.4,53.6-39.4
		c32,0,50.8,14.4,53.9,37.7L932.4,131.4z"/>
	<path class="st3" d="M982,157.2c0-39.1,24.1-65.5,61.4-65.5c33.5,0,59.5,21.3,59.5,64.3v9.6h-86.2v0.1c0,18.9,11.1,30.5,28.7,30.5
		c11.7,0,20.8-5,24.3-14.7l32.5,2.1c-4.9,23.5-26,38.7-57.4,38.7C1005.9,222.4,982,197.4,982,157.2z M1069.9,143.9
		c-0.1-15.1-10.6-26-25.9-26c-15.6,0-26.5,11.5-27.3,26H1069.9z"/>
	<path class="st3" d="M1192.2,119.7h-23.8V181c0,9.7,4.9,12.4,11.9,12.4c3.3,0,7-0.8,8.7-1.2l5.5,26.1c-3.5,1.2-10,3-19,3.3
		c-25.5,1.1-42.4-11.2-42.2-36v-65.9H1116V93.4h17.3V63h35.1v30.3h23.8V119.7z"/>
	<g>
		<path class="st4" d="M74.8,189.5c-9.7-10.2-16.6-23-19.7-37.2c-0.2-1.1-1.2-2-2.4-2H20H8c-1.5,0-2.7,1.3-2.5,2.8
			c1.7,12.3,5.1,24.1,10.1,35c0.4,0.9,1.3,1.4,2.3,1.4h13.4c0.9,0,1.7,0.5,2.1,1.3c4.3,7.7,9.5,14.8,15.5,21.3
			c0.6,0.7,0.8,1.6,0.5,2.4l-4.1,12.8c-0.3,0.9,0,1.9,0.7,2.6c9,8.2,19.1,15.1,30.1,20.5c1.3,0.7,2.9-0.1,3.4-1.5l3.7-11.4
			l10.1-31.1c0.4-1.1-0.1-2.3-1.1-2.9C85.8,199.6,79.9,194.9,74.8,189.5z"/>
		<path class="st4" d="M210.8,150.3c-1.2,0-2.2,0.8-2.4,2c-3.1,14.2-10,27-19.7,37.2c-14.3,15.1-34.5,24.5-56.9,24.5
			c-2.7,0-5.3-0.1-7.9-0.4c-1.1-0.1-2.2,0.6-2.6,1.7l-10.1,31.1l-3.7,11.4c-0.5,1.4,0.5,2.9,1.9,3.2c7.2,1.3,14.7,1.9,22.3,1.9
			c4.7,0,9.4-0.3,14-0.8c1-0.1,1.8-0.8,2.1-1.7l4.1-12.8c0.3-0.9,1-1.5,1.9-1.7c8.4-1.7,16.4-4.2,24-7.7c1-0.4,2.2-0.2,2.9,0.6
			l7.6,8.6c0.8,0.9,2,1.1,3,0.6c10.7-5.7,20.5-12.8,29.1-21.2c0.8-0.8,1-2,0.4-3l-5.9-9.9c-0.6-0.9-0.4-2.1,0.3-2.9
			c5.6-6.2,10.6-13.1,14.7-20.5c0.4-0.8,1.3-1.3,2.1-1.3h13.4c1,0,1.9-0.6,2.3-1.4c4.9-10.9,8.4-22.7,10.1-35c0.2-1.5-1-2.8-2.5-2.8
			h-12H210.8z"/>
		<path class="st5" d="M52.7,120.9c1.2,0,2.2-0.8,2.4-2c3.1-14.2,10-27,19.7-37.2c14.3-15.1,34.5-24.5,56.9-24.5s42.6,9.4,56.9,24.5
			c9.7,10.2,16.6,23,19.7,37.2c0.2,1.1,1.2,2,2.4,2h32.7h12c1.5,0,2.7-1.3,2.5-2.8c-1.7-12.3-5.1-24.1-10.1-35
			c-0.4-0.9-1.3-1.4-2.3-1.4h-13.4c-0.9,0-1.7-0.5-2.1-1.3c-4.4-7.9-9.8-15.2-16-21.8v0l6.8-11.4c0.6-1,0.4-2.2-0.4-3
			c-8.6-8.4-18.4-15.5-29.1-21.2c-1-0.5-2.3-0.3-3,0.6l-7.6,8.6c-0.7,0.8-1.9,1.1-2.9,0.6c-7.3-3.3-15-5.8-23-7.5
			c-1.1-0.2-1.9-1.1-2-2.2l-1.1-11.4c-0.1-1.1-1-2.1-2.1-2.2c-5.9-0.8-11.9-1.3-18-1.3c-6.1,0-12.1,0.4-18,1.3
			c-1.1,0.2-2,1.1-2.1,2.2l-1.1,11.4c-0.1,1.1-0.9,2-2,2.2c-8,1.7-15.7,4.2-23,7.5c-1,0.4-2.2,0.2-2.9-0.6l-7.6-8.6
			c-0.8-0.9-2-1.1-3-0.6C61.5,28.6,51.6,35.8,43,44.2c-0.8,0.8-1,2-0.4,3l5.9,9.9c0.6,0.9,0.4,2.1-0.3,2.9
			C42.5,66.2,37.6,73,33.4,80.4c-0.4,0.8-1.3,1.3-2.1,1.3H17.9c-1,0-1.9,0.6-2.3,1.4c-4.9,10.9-8.4,22.7-10.1,35
			c-0.2,1.5,1,2.8,2.5,2.8h12H52.7z"/>
	</g>
	<circle class="st6" cx="131.7" cy="135.6" r="49"/>
</g>
</svg>
