<?xml version="1.0" encoding="utf-8"?>
<!-- Generator: Adobe Illustrator 22.1.0, SVG Export Plug-In . SVG Version: 6.00 Build 0)  -->
<svg class="d-inline-block align-top navbar-logo" viewBox="0 0 158 37" xmlns="http://www.w3.org/2000/svg"><defs><linearGradient id="black"><stop stop-color="#1c1c1c"></stop></linearGradient><radialGradient cx="-.057%" cy="50.212%" fx="-.057%" fy="50.212%" r="2.494%" gradientTransform="matrix(.16393 0 0 1 0 0)" id="a"><stop stop-color="#2C59DE" offset="0%"></stop><stop stop-color="#2C5ADE" offset="1%"></stop><stop stop-color="#2C75DE" offset="25%"></stop><stop stop-color="#2C88DE" offset="49%"></stop><stop stop-color="#2C93DE" offset="74%"></stop><stop stop-color="#2C97DE" offset="100%"></stop></radialGradient><radialGradient cx=".067%" cy="49.85%" fx=".067%" fy="49.85%" r="2.494%" gradientTransform="matrix(.16393 0 0 1 0 0)" id="b"><stop stop-color="#A63F5E" offset="0%"></stop><stop stop-color="#C34B5E" offset="17%"></stop><stop stop-color="#DD555E" offset="37%"></stop><stop stop-color="#F05D5E" offset="57%"></stop><stop stop-color="#FB615E" offset="78%"></stop><stop stop-color="#FF635E" offset="100%"></stop></radialGradient><linearGradient x1="-.062%" y1="49.672%" x2="99.987%" y2="49.672%" id="c"><stop stop-color="#8A23A3" offset="0%"></stop><stop stop-color="#C45EDD" offset="100%"></stop></linearGradient><radialGradient cx=".005%" cy="50.034%" fx=".005%" fy="50.034%" r="2.494%" gradientTransform="matrix(.16393 0 0 1 0 0)" id="d"><stop stop-color="#1F8F9F" offset="0%"></stop><stop stop-color="#1F9C9F" offset="14%"></stop><stop stop-color="#1FAF9F" offset="42%"></stop><stop stop-color="#1FBA9F" offset="70%"></stop><stop stop-color="#1FBE9F" offset="100%"></stop></radialGradient></defs><g fill-rule="nonzero" fill="url(#black)"><path d="M16.1 1h25.5c1.4 0 2.5 1.1 2.5 2.5S43 6 41.6 6H16.1c-1.4 0-2.5-1.1-2.5-2.5S14.7 1 16.1 1z" fill="url(#a)"></path><path d="M2.5 21.2H28c1.4 0 2.5 1.1 2.5 2.5s-1.1 2.5-2.5 2.5H2.5c-1.4 0-2.5-1.1-2.5-2.5s1.1-2.5 2.5-2.5z" fill="url(#b)"></path><path d="M12.7 31.3h25.5c1.4 0 2.5 1.1 2.5 2.5s-1.1 2.5-2.5 2.5H12.7c-1.4 0-2.5-1.1-2.5-2.5s1.1-2.5 2.5-2.5z" fill="url(#c)"></path><path class="navbar-logo-text" d="M57.9 1h5.7v35.4h-5.7zM82.6 36.4l-6-16.1-2-5.4v21.5h-5.2V1h5.1L80 17.2l1.9 5.5V1h5v35.4M100.3 37c-5.1 0-8.4-3.1-8.4-8.1v-3.1h5.2v3c0 2.2 1 3.5 3 3.5s3-1.2 3-3.2c0-3.1-1.6-5.4-4.6-8.5-2.9-2.9-6.4-7.1-6.4-11.6 0-4.8 2.8-8.7 8.3-8.7 4.8 0 7.9 3.3 7.9 8.1v3.2h-5.1V8.4c0-2-.9-3.3-2.7-3.3-1.7 0-2.8 1.1-2.8 2.9 0 3.5 1.6 5.2 4.9 8.7 3.5 3.6 6.1 7.1 6.1 11.6-.1 5.6-3.8 8.7-8.4 8.7M122.5 6.1v30.3h-5.7V6.1h-5.5V1h16.6v5.1M132.6 1h5.7v35.4h-5.7zM144.1 1v35.4H158v-5.1h-8.2V1"></path><path d="M9.3 11.1h25.5c1.4 0 2.5 1.1 2.5 2.5s-1.1 2.5-2.5 2.5H9.3c-1.4 0-2.5-1.1-2.5-2.5s1.1-2.5 2.5-2.5z" fill="url(#d)"></path></g></svg>