<svg version="1.2" xmlns="http://www.w3.org/2000/svg" viewBox="0 0 1590 366" width="1590" height="366">
	<title>kainos-logo-pdf-svg</title>
	<defs>
		<clipPath clipPathUnits="userSpaceOnUse" id="cp1">
			<path d="m-7.42-619.63h1605.45v1605.26h-1605.45z"/>
		</clipPath>
		<radialGradient id="g1" cx="1097.3" cy="103.1" r="261.7" gradientUnits="userSpaceOnUse">
			<stop offset="0" stop-color="#c1d118"/>
			<stop offset=".9" stop-color="#00983f"/>
			<stop offset="1" stop-color="#00983f"/>
		</radialGradient>
	</defs>
	<style>
		.s0 { fill: url(#g1) } 
		.s1 { fill: #202d52 } 
	</style>
	<g id="Clip-Path: Page 1" clip-path="url(#cp1)">
		<g id="Page 1">
			<ellipse id="Path 2" class="s0" cx="1097.3" cy="232.1" rx="132.9" ry="132.9"/>
			<path id="Path 1" fill-rule="evenodd" class="s1" d="m232.9 238.1c0-73.6 51.4-128.5 118.8-128.5 40.2 0 69.1 17.1 86.2 47.6v-41.6h45.3v244.3h-45.3v-41.6c-17.1 30.4-46 47.5-86.2 47.5-67.4 0-118.8-55-118.8-127.7zm206.5 0c0-52.1-31.2-88.3-78.7-88.3-48.3 0-80.3 36.2-80.3 88.3 0 51.2 32 87.6 80.3 87.6 47.5 0 78.7-36.4 78.7-87.6zm121-122.5h46.1v244.3h-46.1zm-8.2-57.5c0-17.8 14.8-31.1 31.2-31.1 16.4 0 31.1 13.3 31.1 31.1 0 17.8-14.7 31.2-31.1 31.2-16.4 0-31.2-13.4-31.2-31.2zm131.4 57.5h45.2v39.3c15.8-29.7 46.9-45.2 84-45.2 53.5 0 93.6 34 93.6 100.1v150h-45.3v-145.5c0-43-20.8-63.9-59.4-63.9-43.8 0-72.9 27.5-72.9 74.4v135h-45.2zm576.2 195.3l32.5-23.1c15 24.6 39.4 39.3 72.1 39.3 31.2 0 49-12.5 49-32.6 0-21.5-17-30.5-59.4-42.3-48.3-13.4-77.2-32-77.2-75 0-40.1 31.9-67.6 80.1-67.6 38.7 0 64.7 14.1 84 39.3l-30.5 25.4c-11.9-15.7-27.5-26-52.7-26-24.6 0-38.5 11.9-38.5 27.5 0 21.5 15.5 27.4 53.4 37 51.9 13.4 84.6 34.9 84.6 79.5 0 46.1-35 73.5-92.8 73.5-46.8 0-82.5-20.8-104.6-54.9zm-1213.9-310.8v219.8l108.5-104.7h60.7l-124.6 123 124.6 121.4h-60.9l-108.3-104.9v105.2h-45.3v-359.8zm1504.2 135.7q2.5 0 4.4 0.8 2.1 0.8 3.6 2.2 1.4 1.5 2.2 3.4 0.8 1.9 0.8 4 0 3.4-1.4 6-1.5 2.4-4.5 3.7v0.1q1.4 0.3 2.4 1.3 1.1 0.8 1.8 2.1 0.6 1.1 0.9 2.6 0.2 1.4 0.3 2.8 0 1 0.2 2.1 0 1.3 0.2 2.6 0.1 1.3 0.4 2.4 0.2 1.1 0.9 1.9h-8.4q-0.6-1.7-0.8-4.3-0.2-2.4-0.5-4.8-0.5-2.9-1.9-4.4-1.3-1.4-4.5-1.4h-8.4v14.9h-8.3v-38zm-3 17.2q2.8 0 4.3-1.3 1.4-1.3 1.4-4.2 0-2.7-1.4-4-1.5-1.1-4.3-1.1h-9.2v10.6zm-2.7 47.6c-25.3 0-45.8-20.4-45.8-45.7 0-25.3 20.5-45.8 45.8-45.8 25.3 0 45.7 20.5 45.7 45.8 0 25.3-20.4 45.7-45.7 45.7zm35.9-45.8c0-19.8-16-35.9-35.9-35.9-19.9 0-36 16.1-36 35.9 0 19.8 16.1 35.9 36 35.9 19.9 0 35.9-16.1 35.9-35.9z"/>
		</g>
	</g>
</svg>