<?xml version="1.0" encoding="utf-8"?>
<!-- Generator: Adobe Illustrator 22.1.0, SVG Export Plug-In . SVG Version: 6.00 Build 0)  -->
<svg xmlns="http://www.w3.org/2000/svg" viewBox="0 0 123 40" fill="#011719"><title>Qarik</title><path d="M40.353 17.673c1.167-2.187 2.752-3.884 4.765-5.099 2.008-1.21 4.235-1.818 6.667-1.818 2.195 0 4.115.437 5.754 1.305 1.639.869 2.948 1.953 3.928 3.254v-4.1h5.83v28.227h-5.83v-4.199c-.98 1.332-2.316 2.444-4.004 3.33-1.692.887-3.616 1.333-5.78 1.333-2.401 0-4.597-.622-6.592-1.873-1.995-1.246-3.576-2.988-4.738-5.225-1.167-2.236-1.75-4.77-1.75-7.605 0-2.831.583-5.343 1.75-7.53zm19.925 2.561c-.798-1.436-1.835-2.525-3.118-3.28-1.287-.752-2.672-1.126-4.155-1.126-1.487 0-2.872.37-4.155 1.103-1.287.733-2.325 1.809-3.117 3.226-.793 1.418-1.19 3.101-1.19 5.046 0 1.948.397 3.654 1.19 5.121.792 1.467 1.843 2.588 3.144 3.357 1.3.77 2.676 1.153 4.133 1.153 1.487 0 2.872-.379 4.155-1.13 1.282-.752 2.324-1.854 3.117-3.303.793-1.45 1.19-3.15 1.19-5.1-.005-1.94-.402-3.631-1.194-5.067zM80.122 11.962c1.403-.8 3.069-1.201 4.993-1.201v6.044h-1.47c-2.267 0-3.981.58-5.144 1.741-1.167 1.162-1.75 3.178-1.75 6.044v14.856h-5.78V11.22h5.78v4.1c.842-1.436 1.968-2.557 3.371-3.358zM88.588 6.404c-.708-.715-1.064-1.607-1.064-2.664 0-1.058.356-1.949 1.064-2.664C89.301.36 90.178 0 91.225 0c1.015 0 1.875.36 2.587 1.076.708.715 1.064 1.606 1.064 2.664 0 1.057-.356 1.949-1.064 2.664-.708.716-1.572 1.076-2.587 1.076-1.047 0-1.924-.36-2.637-1.076zm5.478 33.042h-5.78V11.22h5.78v28.226zM33.24 34.739c-.592-.027-1.166-.09-1.723-.189 1.617-1.66 2.89-3.591 3.812-5.792.944-2.246 1.412-4.68 1.412-7.304 0-2.656-.463-5.104-1.39-7.354-.926-2.246-2.217-4.208-3.87-5.878-1.652-1.67-3.598-2.974-5.838-3.91-2.236-.932-4.667-1.4-7.295-1.4-2.596 0-5.005.468-7.228 1.404-2.222.936-4.168 2.246-5.838 3.933-1.666 1.688-2.966 3.65-3.893 5.9C.463 16.4 0 18.834 0 21.454c0 2.655.463 5.103 1.39 7.349.926 2.25 2.217 4.212 3.87 5.882 1.652 1.67 3.589 2.975 5.816 3.91 2.222.937 4.65 1.405 7.277 1.405 2.596 0 5.005-.468 7.228-1.404.169-.072.334-.149.498-.225.165.076.33.153.5.225C28.8 39.532 31.222 40 33.845 40l-.605-5.261zm-16.344-5.932c.904 2.192 2.156 4.11 3.755 5.752-.735.126-1.501.194-2.298.194-2.378 0-4.494-.568-6.347-1.71-1.852-1.14-3.313-2.715-4.377-4.73-1.065-2.012-1.599-4.299-1.599-6.86 0-2.592.534-4.887 1.599-6.885 1.064-1.998 2.525-3.564 4.378-4.707 1.852-1.14 3.968-1.71 6.346-1.71.81 0 1.59.071 2.338.197-1.621 1.665-2.886 3.592-3.795 5.792-.926 2.25-1.389 4.68-1.389 7.305-.005 2.664.463 5.112 1.39 7.362zm12.225-.49c-.784 1.485-1.786 2.727-2.997 3.735-1.211-1.008-2.213-2.255-2.997-3.735-1.064-2.012-1.599-4.298-1.599-6.859 0-2.592.535-4.887 1.599-6.885.784-1.472 1.786-2.71 2.997-3.713 1.211 1.003 2.213 2.24 2.997 3.713 1.065 1.998 1.599 4.293 1.599 6.885 0 2.556-.534 4.843-1.599 6.859zM109.738 25.383l12.857 14.068h-7.798l-10.328-12.124V39.45h-5.767V1.593h5.767v21.998l10.127-12.33h7.999l-12.857 14.122z"></path></svg>