<?xml version="1.0" encoding="utf-8"?>
<!-- Generator: Adobe Illustrator 21.0.2, SVG Export Plug-In . SVG Version: 6.00 Build 0)  -->
<svg version="1.1" id="Layer_1" xmlns="http://www.w3.org/2000/svg" xmlns:xlink="http://www.w3.org/1999/xlink" x="0px" y="0px"
	 viewBox="0 0 107.1 18" style="enable-background:new 0 0 107.1 18;" xml:space="preserve">
<style type="text/css">
	.st0{fill:#E45E25;}
</style>
<g>
	<path d="M11.1,8.1h-0.2H6.7l1-4.3h4.1c1.3,0,2.1,0.7,2.1,1.8C13.9,6.9,12.9,8.1,11.1,8.1 M18.4,5.1c0-2.9-2.3-5.1-6.3-5.1H4L0,18
		h4.5l1.4-6.2h2.7l2.6,6.2h4.5l-2.8-6.5C16.3,11,18.4,8.3,18.4,5.1"/>
	<path d="M26.4,11.3l3.9-6.6l1.5,6.6H26.4z M28.4,0L17.9,18h4.5l1.8-3h8.4l0.7,3h4.5l-4-18H28.4z"/>
	<path d="M50.6,8.1h-0.3h-3.7l0.9-4.3H51c1.4,0,2.2,0.7,2.2,1.8C53.3,6.9,52.2,8.1,50.6,8.1 M51.5,0h-7.7l-4,18h4.5l1.4-6.2h5.1
		c4.3,0,6.9-3.2,6.9-6.6C57.8,2.1,55.4,0,51.5,0"/>
	<polygon points="66.3,0 61.8,0 57.8,18 62.3,18 	"/>
	<path class="st0" d="M99,0H84.7c0.2,0.2,0.4,0.4,0.6,0.7c1.6,1.9,2.4,4.3,2.4,7c0,4.1-1.7,7.8-4.5,10.3H92l4.2-10.3H91l0.9-4h10.3
		L96.7,18h2.1c5,0,8.3-4.1,8.3-9C107.1,4,103.9,0,99,0"/>
	<path d="M73.7,14.2h-2.5l2.3-10.5h2.4C78.5,3.7,80,5.6,80,8C80,11.4,77.6,14.2,73.7,14.2 M82.8,2.9C81.3,1.1,78.7,0,75.7,0h-5.8
		l-4,18h7.3c2.8,0,5-0.6,6.7-1.6c3.4-2,4.6-5.6,4.6-8.7C84.5,5.8,83.9,4.2,82.8,2.9"/>
</g>
</svg>
