<?xml version="1.0" encoding="utf-8"?>
<!-- Generator: Adobe Illustrator 23.0.3, SVG Export Plug-In . SVG Version: 6.00 Build 0)  -->
<svg version="1.1" id="Layer_1" xmlns="http://www.w3.org/2000/svg" xmlns:xlink="http://www.w3.org/1999/xlink" x="0px" y="0px"
	 viewBox="0 0 175 36.89" style="enable-background:new 0 0 175 36.89;" xml:space="preserve">
<style type="text/css">
	.st0{fill-rule:evenodd;clip-rule:evenodd;fill:#EEAA1F;}
	.st1{fill-rule:evenodd;clip-rule:evenodd;fill:#213F78;}
	.st2{fill:#EEAA1F;}
	.st3{fill:#213F78;}
</style>
<g id="SIGNIFYD_Logo_2_">
	<path id="XMLID_24_" class="st0" d="M24,28.94h9.25c0.05-2.77,0.05-5.76,0-8.53c-3.08,0.02-6.25-0.04-9.28,0.03
		C23.99,23.27,23.92,26.17,24,28.94"/>
	<path id="XMLID_23_" class="st1" d="M17.5,25.56h5.02v-4.95c-1.68,0.02-3.45-0.04-5.09,0.03v4.82
		C17.44,25.52,17.46,25.54,17.5,25.56"/>
	<path id="XMLID_22_" class="st0" d="M13.24,19.39c3.08-0.02,6.25,0.04,9.28-0.03c-0.02-2.82,0.04-5.73-0.03-8.49h-9.25V19.39z"/>
	<path id="XMLID_21_" class="st1" d="M37.12,7.71H23.96c0.02,3.83-0.04,7.75,0.03,11.53c0.74,0.05,1.42-0.28,2.13-0.54
		c0.31-0.11,0.64-0.26,0.95-0.38c0.35-0.14,0.7-0.24,0.92-0.41c0.2-0.17,0.46-0.56,0.49-0.8c0.04-0.27-0.07-0.59-0.1-0.89
		c-0.03-0.3-0.05-0.61-0.06-0.93c-0.64,0.13-0.8-0.93-0.79-1.47c0-0.22,0.12-0.41,0.13-0.61c0.03-0.34-0.05-0.67-0.03-0.99
		c0.06-1.12,0.43-2.22,1.15-2.87c0.37-0.34,0.96-0.67,1.7-0.67c1.96,0,3.15,1.92,2.69,4.44c0,0.1,0.1,0.1,0.16,0.16
		c0.23,0.24,0.09,0.68,0,1.12c-0.1,0.47-0.15,0.82-0.46,0.89c-0.06,0.11-0.25-0.1-0.26,0.06c-0.15,0.58-0.37,1.25-0.26,1.92
		c0.05,0.3,0.3,0.73,0.49,0.86c0.19,0.14,0.57,0.18,0.82,0.29c0.57,0.24,1.03,0.41,1.64,0.57c0.3,0.08,0.6,0.22,0.85,0.25
		c0.17,0.02,0.89,0.04,0.95-0.03c0.03-0.03,0-0.45,0-0.7V7.71z"/>
	<path class="st2" d="M50.11,29.03c-1.27,0-2.45-0.13-3.5-0.38c-1.04-0.26-2.04-0.61-2.98-1.05l-0.33-0.15V23.7l0.94,0.77
		c0.87,0.71,1.8,1.2,2.77,1.47c1.7,0.46,3.74,0.52,5.3,0.22c0.62-0.12,1.17-0.31,1.62-0.57c0.42-0.24,0.74-0.55,0.97-0.93
		c0.22-0.37,0.34-0.84,0.34-1.41c0-0.45-0.09-0.82-0.26-1.14c-0.19-0.34-0.45-0.64-0.77-0.9c-0.35-0.28-0.76-0.53-1.23-0.74
		c-0.5-0.23-1.04-0.45-1.59-0.64c-0.57-0.2-1.15-0.4-1.76-0.59c-0.62-0.2-1.23-0.41-1.82-0.65c-0.6-0.24-1.17-0.51-1.7-0.8
		c-0.56-0.31-1.06-0.68-1.48-1.1c-0.43-0.43-0.78-0.94-1.03-1.5c-0.26-0.57-0.39-1.24-0.39-1.98c0-0.72,0.1-1.37,0.3-1.93
		c0.2-0.57,0.49-1.07,0.85-1.49c0.36-0.42,0.78-0.77,1.25-1.05c0.47-0.28,0.96-0.49,1.48-0.65c0.5-0.15,1.04-0.27,1.59-0.34
		c1.12-0.14,2.27-0.13,3.25,0c0.51,0.07,1.01,0.16,1.49,0.27c0.47,0.11,0.94,0.24,1.39,0.39c0.44,0.14,0.89,0.3,1.35,0.46L56.54,9
		v3.52l-0.89-0.6c-0.26-0.17-0.56-0.36-0.9-0.55c-0.32-0.19-0.7-0.36-1.11-0.5c-0.42-0.15-0.9-0.28-1.45-0.38
		c-1.18-0.22-2.79-0.19-3.9,0.03c-0.58,0.12-1.08,0.3-1.47,0.54c-0.37,0.23-0.64,0.51-0.84,0.85c-0.19,0.34-0.29,0.75-0.29,1.24
		c0,0.39,0.08,0.71,0.25,0.99c0.18,0.3,0.44,0.58,0.76,0.82c0.35,0.26,0.76,0.5,1.24,0.71c0.5,0.23,1.03,0.44,1.59,0.64
		c0.58,0.2,1.17,0.41,1.78,0.62c0.63,0.21,1.23,0.44,1.82,0.69c0.6,0.25,1.17,0.53,1.7,0.84c0.56,0.32,1.05,0.71,1.47,1.14
		c0.43,0.44,0.77,0.95,1.03,1.53c0.26,0.58,0.39,1.26,0.39,2.01c0,0.79-0.11,1.5-0.34,2.11c-0.22,0.61-0.53,1.14-0.92,1.58
		c-0.38,0.44-0.84,0.81-1.35,1.1c-0.49,0.28-1.03,0.51-1.59,0.67c-0.55,0.16-1.12,0.27-1.71,0.34C51.23,29,50.66,29.03,50.11,29.03z
		"/>
	<path class="st2" d="M63.04,28.65h-2.44V8h2.44V28.65z"/>
	<path class="st2" d="M75.67,29.03c-1.4,0-2.72-0.22-3.92-0.65c-1.22-0.44-2.29-1.11-3.19-2.01c-0.89-0.89-1.6-2.03-2.11-3.36
		c-0.5-1.32-0.75-2.9-0.75-4.67c0-1.18,0.12-2.28,0.35-3.26c0.23-0.99,0.57-1.89,0.99-2.68c0.43-0.8,0.95-1.5,1.56-2.1
		c0.6-0.59,1.29-1.09,2.03-1.48c0.73-0.38,1.53-0.68,2.38-0.87c1.47-0.34,3.18-0.37,4.56-0.15c0.6,0.1,1.17,0.23,1.71,0.4
		c0.54,0.17,1.07,0.38,1.58,0.62c0.51,0.24,1.01,0.5,1.52,0.79l0.29,0.16v3.75l-0.95-0.82c-0.37-0.32-0.78-0.63-1.21-0.93
		c-0.42-0.28-0.87-0.53-1.35-0.74c-0.48-0.21-1-0.38-1.55-0.51c-0.55-0.12-1.15-0.18-1.78-0.18c-1.31,0-2.45,0.19-3.41,0.56
		c-0.94,0.36-1.74,0.89-2.36,1.56c-0.62,0.67-1.1,1.51-1.42,2.48c-0.32,1-0.49,2.14-0.49,3.4c0,1.17,0.16,2.27,0.48,3.25
		c0.31,0.97,0.78,1.81,1.4,2.5c0.62,0.69,1.41,1.24,2.35,1.63c0.95,0.39,2.08,0.59,3.38,0.59c0.52,0,1.04-0.03,1.54-0.08
		c0.51-0.06,0.99-0.13,1.45-0.21c0.45-0.09,0.87-0.18,1.24-0.29c0.21-0.06,0.4-0.12,0.57-0.18v-5.52h2.44v7.27l-0.33,0.16
		c-0.53,0.25-1.07,0.48-1.6,0.68c-0.53,0.19-1.09,0.36-1.68,0.5c-0.57,0.13-1.18,0.23-1.8,0.3C76.99,29,76.34,29.03,75.67,29.03z"/>
	<path class="st3" d="M102.23,28.65h-2.28L88.45,12.68v15.97H86V8h2.3l11.5,16.02V8h2.42V28.65z"/>
	<path class="st3" d="M108.31,28.65h-2.44V8h2.44V28.65z"/>
	<path class="st3" d="M114.41,28.65h-2.44V8h12.42v2.81h-9.98v5.56h9.47v2.77h-9.47V28.65z"/>
	<path class="st3" d="M136.7,28.65h-2.44v-8.68L127.14,8h2.88l5.46,9.21L140.93,8h2.89l-7.12,11.98V28.65z"/>
	<path class="st3" d="M154.47,28.65h-5.98v-2.77h5.97c0.96,0,1.84-0.12,2.63-0.35c0.76-0.22,1.38-0.6,1.92-1.16
		c0.54-0.55,0.97-1.32,1.28-2.28c0.32-0.98,0.48-2.26,0.48-3.78c0-1.02-0.07-1.93-0.22-2.71c-0.14-0.76-0.35-1.43-0.61-1.98
		c-0.25-0.54-0.56-0.99-0.92-1.35c-0.36-0.36-0.78-0.66-1.23-0.88c-0.46-0.23-0.97-0.39-1.51-0.48c-0.56-0.1-1.18-0.15-1.82-0.15
		h-5.46v6.23h-2.44V8h7.9c1.22,0,2.37,0.17,3.42,0.49c1.09,0.34,2.05,0.93,2.85,1.74c0.79,0.81,1.42,1.9,1.87,3.22
		c0.44,1.3,0.66,2.93,0.66,4.85c0,1.28-0.1,2.44-0.3,3.44c-0.2,1.01-0.48,1.91-0.85,2.67c-0.37,0.77-0.83,1.44-1.37,1.99
		c-0.54,0.55-1.14,0.99-1.8,1.32c-0.65,0.32-1.36,0.56-2.12,0.71C156.07,28.58,155.28,28.65,154.47,28.65z"/>
</g>
</svg>
