<?xml version="1.0" encoding="utf-8"?>
<!-- Generator: Adobe Illustrator 22.1.0, SVG Export Plug-In . SVG Version: 6.00 Build 0)  -->
<svg version="1.1" id="Layer_1" xmlns="http://www.w3.org/2000/svg" xmlns:xlink="http://www.w3.org/1999/xlink" x="0px" y="0px"
	 viewBox="0 0 480.9 278.9" style="enable-background:new 0 0 480.9 278.9;" xml:space="preserve">
<style type="text/css">
	.st0{fill:#143E5A;}
	.st1{fill:#0082AC;}
	.st2{fill:#59B6A0;}
	.st3{fill:#BDD755;}
</style>
<g>
	<path class="st0" d="M35.9,264.4c0,8.8-6.7,14.4-17,14.4c-8.4,0-15.1-3.8-18.5-10.4L0,267.7l9.4-5.4l0.5,0.8c2.3,3.8,5,5.5,8.8,5.5
		c3.4,0,5.7-1.6,5.7-3.9c0-2.7-2-3.6-6.5-5.6l-2.4-1c-6.3-2.7-12.2-6.4-12.2-15.5c0-8.1,6.2-13.7,15.1-13.7c6.8,0,11.4,2.6,14.6,8.2
		l0.4,0.7l-9.1,5.8l-0.5-0.8c-1.7-3.1-3.4-3.7-5.5-3.7c-2.2,0-3.7,1.3-3.7,3.3c0,2.3,1.4,3.3,5.4,5.1l2.4,1
		C30.7,251.9,35.9,255.8,35.9,264.4z"/>
	<path class="st0" d="M86,253.8l-22.8-25.1h-2.1v49.5h11.1v-18.6c0-1,0-2.2-0.1-3.7l-0.1-1.4l0.9,1.2c0.9,1.2,1.7,2.2,2.4,3
		l9.6,10.8h1.7l9.6-10.8c0.7-0.8,1.5-1.8,2.4-3l0.9-1.2l-0.1,1.4c-0.1,1.5-0.1,2.7-0.1,3.7v18.6h11.2v-49.5h-2.1L86,253.8z"/>
	<g>
		<path class="st0" d="M157.7,228.8h-2l-21.5,49.4h11.3l2.2-5.3h17.9l2.2,5.3H180L157.7,228.8z M151.7,263l2.9-6.9
			c0.5-1.1,1-2.6,1.5-4.3l0.4-1.3l0.4,1.3c0.6,1.7,1.1,3.1,1.6,4.3l2.9,6.9H151.7z"/>
	</g>
	<path class="st0" d="M221.2,248.3l-2.4-1c-4.1-1.8-5.4-2.7-5.4-5.1c0-1.9,1.5-3.3,3.7-3.3c2,0,3.7,0.6,5.5,3.7l0.5,0.8l9.1-5.8
		l-0.4-0.7c-3.2-5.6-7.8-8.2-14.6-8.2c-8.9,0-15.1,5.6-15.1,13.7c0,9,5.9,12.8,12.2,15.5l2.4,1c4.5,2,6.5,3,6.5,5.6
		c0,2.3-2.3,3.9-5.7,3.9c-3.8,0-6.5-1.6-8.8-5.5l-0.5-0.8l-9.4,5.4l0.4,0.8c3.4,6.6,10.1,10.4,18.5,10.4c10.3,0,17-5.7,17-14.4
		C234.7,255.8,229.6,251.9,221.2,248.3z"/>
	<polygon class="st0" points="289.8,253.4 271.4,253.4 271.4,229.2 259.9,229.2 259.9,278.2 271.4,278.2 271.4,263.9 289.8,263.9 
		289.8,278.2 301.3,278.2 301.3,229.2 289.8,229.2 	"/>
	<polygon class="st0" points="328.8,278.2 340.3,278.2 340.3,263.9 359.1,263.9 359.1,253.4 340.3,253.4 340.3,239.6 361,239.6 
		361,229.2 328.8,229.2 	"/>
	<polygon class="st0" points="398.3,229.2 386.7,229.2 386.7,278.2 419.6,278.2 419.6,267.9 398.3,267.9 	"/>
	<path class="st0" d="M468.9,229.2l-8.2,15.7c-0.7,1.4-1.6,3.3-2.5,5.7l-0.4,1.1l-0.4-1.1c-0.9-2.3-1.8-4.3-2.6-5.7l-8.6-15.7h-12.8
		l18.5,33.3v15.7h11.6l0.1-16.5l17.3-32.5H468.9z"/>
	<polygon class="st0" points="281.5,31.6 221.4,47.1 221.4,37.4 281.5,21.9 281.5,0 199.5,21.2 199.5,74.6 259.6,59.1 259.6,68.8 
		199.5,84.3 199.5,106.2 281.5,85 	"/>
	<polygon class="st1" points="281.5,172.7 281.5,95.1 260.5,100.5 260.5,172.7 	"/>
	<polygon class="st2" points="230,155.4 250.9,155.4 250.9,103 230,108.3 	"/>
	<polygon class="st3" points="220.4,110.8 199.5,116.2 199.5,138.1 220.4,138.1 	"/>
</g>
</svg>
