<?xml version="1.0" encoding="utf-8"?>
<!-- Generator: Adobe Illustrator 22.1.0, SVG Export Plug-In . SVG Version: 6.00 Build 0)  -->
<svg id="Layer_1" xmlns="http://www.w3.org/2000/svg" viewBox="0 0 359.4 67.3"><style>.st0logo{fill:#f89222}.st1logo{fill:#000d64}</style><g id="Group_12" transform="translate(92.653 -401.217)"><path id="Path_201" class="st0logo" d="M-92.7 423.4c0-2.4 2-4.4 4.4-4.4 2.4 0 4.4 2 4.4 4.4s-2 4.4-4.4 4.4c-2.4 0-4.4-2-4.4-4.4z"></path><path id="Path_202" class="st0logo" d="M-18.2 425.8c-.5 1.6-1.9 2.7-3.6 2.6-2.8 0-3.6-1.4-7.3-1.4-2.3 0-3.9 1.2-3.9 3.1 0 2.2 2.1 2.4 8 4.4 3 1 6 2.4 7.7 5.1.6-4.6.3-9.3-.9-13.8zm-20.7 21.6c2.1 0 4.9 2.2 9.3 2.2 3.3 0 4.6-1.7 4.6-3.5 0-2.9-3.3-3.4-8.1-5-4.1-1.3-8.3-3-9-8.6l-8.3 20.7c-.8 2.1-1.6 4.6-4.8 4.6s-3.9-2.4-4.8-4.6l-10.5-26.4c-.6-1.3-2.2-1.9-3.5-1.3-.3.1-.6.3-.8.5-1.4 2-4.1 2.6-6.1 1.2-.8-.6-1.5-1.4-1.8-2.4-5.6 17.7 4.1 36.6 21.8 42.3 12.5 4 26.1.4 34.9-9.2-1.4.3-2.9.4-4.3.4-5 0-12.6-2-12.6-6.2 0-2.5 1.4-4.7 4-4.7zm-37-27.6c.5.4.9.7 1.3 1.2 0 0 1.9 1.7 4.2-.4.8-.9 1.9-1.3 3.1-1.3 3.2 0 4 1.9 4.8 3.9l7.3 19.3 7.3-19.3c.8-2 1.5-3.9 4.8-3.9 1.9 0 3.6 1.3 4.1 3.2 2.8-2.6 6.5-3.9 10.3-3.7 3.9 0 6.8.8 8.6 2-7.8-16.9-27.8-24.2-44.6-16.4-6.8 3.1-12.4 8.5-15.8 15.1 1.4-.8 3.3-.7 4.6.3z"></path><g id="Group_9" transform="translate(-4.538 421.583)"><path id="Path_203" class="st1logo" d="M7.8 27L-.5 1H6l3.2 11c.9 3.1 1.7 6.1 2.3 9.3h.1c.7-3.1 1.5-6.2 2.4-9.2L17.3 1h6.3l-8.8 26h-7z"></path><path id="Path_204" class="st1logo" d="M29 19.4c.2 2.4 2.6 3.6 5.3 3.6 1.8 0 3.5-.2 5.2-.8l.8 4c-2.2.8-4.5 1.2-6.8 1.2-6.4 0-10.1-3.7-10.1-9.6 0-4.8 3-10.1 9.5-10.1 6.1 0 8.4 4.8 8.4 9.4 0 .8-.1 1.6-.2 2.3H29zm6.9-4c0-1.4-.6-3.8-3.3-3.8-2.5 0-3.5 2.3-3.7 3.8h7z"></path><path id="Path_205" class="st1logo" d="M44.8 14.3c0-2.8 0-4.6-.2-6.2h5l.2 3.5h.2c.7-2.3 2.7-3.9 5.1-3.9.4 0 .8 0 1.2.1v5.5c-.5-.1-1.1-.1-1.6-.2-1.9-.2-3.6 1.1-4 3-.1.4-.1.9-.1 1.3V27h-5.9V14.3z"></path><path id="Path_206" class="st1logo" d="M66.9 2.9V8h4.2v4.3h-4.2v6.8c0 2.3.6 3.3 2.3 3.3.6 0 1.2 0 1.7-.2v4.4c-1.2.4-2.5.5-3.8.5-1.6.1-3.2-.5-4.4-1.6-1.1-1.1-1.6-2.9-1.6-5.6v-7.7h-2.5V8.1h2.5V4.5l5.8-1.6z"></path><path id="Path_207" class="st1logo" d="M77.4 5.8c-1.7 0-3.1-1.4-3.1-3.2 0-1.7 1.4-3.1 3.2-3.1s3.1 1.4 3.1 3.2c0 1.7-1.4 3.1-3.2 3.1zM74.5 27V8.1h5.9V27h-5.9z"></path><path id="Path_208" class="st1logo" d="M99.3 26.5c-1.7.6-3.5.9-5.3.9-6.1 0-10-3.7-10-9.7 0-5.5 3.8-10 10.8-10 1.5 0 3 .2 4.5.7l-.9 4.4c-1-.4-2.2-.6-3.3-.6-2.9.1-5.2 2.6-5.1 5.5.1 2.8 2.4 5 5.2 5.1 1.2 0 2.3-.2 3.4-.6l.7 4.3z"></path><path id="Path_209" class="st1logo" d="M118.4 22.4c0 1.5.1 3.1.3 4.6h-5.3l-.3-1.9h-.1c-1.4 1.6-3.3 2.4-5.4 2.3-3.2.2-5.9-2.3-6.1-5.5v-.3c0-4.9 4.4-7.2 11.1-7.2v-.2c0-1-.5-2.4-3.4-2.4-1.8 0-3.6.5-5.2 1.4l-1.1-3.7c2.3-1.2 4.8-1.7 7.3-1.7 6.3 0 8.3 3.7 8.3 8.1l-.1 6.5zm-5.7-4.3c-3.1 0-5.5.7-5.5 3-.1 1.2.8 2.2 2 2.2h.4c1.4 0 2.6-.9 3.1-2.2.1-.3.1-.7.1-1v-2z"></path><path id="Path_210" class="st1logo" d="M123.1-.5h5.9V27h-5.9V-.5z"></path><path id="Path_211" class="st1logo" d="M133.6 24.1c1.7 1.1 3.7 1.7 5.7 1.7 3.9 0 6.3-2.2 6.3-5.4 0-2.9-1.5-4.6-5.3-6.1-4.2-1.5-6.7-3.7-6.7-7.2 0-3.8 3.1-6.6 7.6-6.6 1.8-.1 3.6.3 5.2 1.2l-.7 1.6c-1.4-.9-3-1.3-4.6-1.2-4.2 0-5.6 2.7-5.6 4.8 0 2.9 1.7 4.3 5.4 5.8 4.3 1.7 6.6 3.7 6.6 7.6 0 3.8-2.7 7.1-8.3 7.1-2.2 0-4.3-.6-6.2-1.7l.6-1.6z"></path><path id="Path_212" class="st1logo" d="M154.9 4.3v4.1h5.3v1.5h-5.3V22c0 2.4.7 3.8 2.7 3.8.7 0 1.4-.1 2.1-.3l.2 1.4c-.8.3-1.7.4-2.6.4-1.2.1-2.4-.4-3.2-1.3-.9-1.3-1.3-2.9-1.2-4.4V9.9h-3.1V8.4h3.1V5l2-.7z"></path><path id="Path_213" class="st1logo" d="M164.3 14c0-1.9 0-3.7-.2-5.6h1.7l.1 3.7h.1c.7-2.4 2.8-4.1 5.3-4.2.3 0 .5 0 .8.1v1.7h-.9c-2.5 0-4.4 2.2-4.9 5.2-.1.6-.2 1.2-.2 1.8V27h-1.9l.1-13z"></path><path id="Path_214" class="st1logo" d="M190 22.5c0 1.6 0 3.1.2 4.5h-1.7l-.1-3.3h-.1c-1.3 2.3-3.7 3.8-6.3 3.7-2.4 0-6.3-1.2-6.3-8.2V8.4h1.9v10.4c0 4 1.2 6.9 4.9 6.9 2.4-.1 4.5-1.5 5.5-3.7.2-.7.3-1.3.3-2V8.4h1.9l-.2 14.1z"></path><path id="Path_215" class="st1logo" d="M209 26.2c-1.7.8-3.6 1.2-5.4 1.2-5.3 0-8.9-3.9-8.9-9.5 0-5.9 4-9.9 9.5-9.9 1.7-.1 3.4.3 4.9 1.2l-.7 1.5c-1.3-.8-2.8-1.1-4.4-1.1-5 0-7.5 3.8-7.5 8.2 0 4.9 3.1 8 7.3 8 1.6 0 3.2-.4 4.6-1.1l.6 1.5z"></path><path id="Path_216" class="st1logo" d="M216.4 4.3v4.1h5.3v1.5h-5.3V22c0 2.4.7 3.8 2.7 3.8.7 0 1.4-.1 2.1-.3l.2 1.4c-.8.3-1.7.4-2.6.4-1.2.1-2.4-.4-3.2-1.3-.9-1.3-1.3-2.9-1.2-4.4V9.9h-3.1V8.4h3.1V5l2-.7z"></path><path id="Path_217" class="st1logo" d="M240.1 22.5c0 1.6 0 3.1.2 4.5h-1.7l-.1-3.3h-.1c-1.3 2.3-3.7 3.8-6.3 3.7-2.4 0-6.3-1.2-6.3-8.2V8.4h1.9v10.4c0 4 1.2 6.9 4.9 6.9 2.4-.1 4.6-1.5 5.5-3.7.2-.7.3-1.4.3-2V8.4h1.9l-.2 14.1z"></path><path id="Path_218" class="st1logo" d="M246.3 14c0-1.9 0-3.7-.2-5.6h1.7l.1 3.7h.1c.7-2.4 2.8-4.1 5.2-4.2.3 0 .5 0 .8.1v1.7h-.9c-2.6 0-4.4 2.2-4.9 5.2-.1.6-.2 1.2-.2 1.8V27h-1.9l.2-13z"></path><path id="Path_219" class="st1logo" d="M257.6 17.5c0 5.9 3.2 8.3 7.1 8.3 1.8.1 3.5-.3 5.1-1l.5 1.4c-1.8.9-3.8 1.3-5.8 1.2-5.3 0-8.6-3.9-8.6-9.3 0-6.2 3.6-10 8.3-10 6.1 0 7.2 5.7 7.2 8.4 0 .4 0 .8-.1 1.1l-13.7-.1zm11.8-1.5c0-2.6-1-6.5-5.5-6.5-4.1 0-5.8 3.6-6.2 6.5h11.7z"></path></g></g></svg>